<svg width="50" height="50" viewBox="0 0 50 50" fill="none" xmlns="http://www.w3.org/2000/svg">
<path opacity="0.4" d="M49.1667 14.8742V29.8334H39.3067C37.6875 29.8334 35.7783 28.6734 35.0292 27.2475L32.5158 22.4867C31.8392 21.2059 30.8725 21.2784 30.3408 22.6075L24.7825 36.6484C24.1783 38.2192 23.1633 38.2192 22.535 36.6484L19.78 29.6884C19.1275 27.9967 17.0975 26.6192 15.285 26.6192L0.833344 26.6917V14.8742C0.833344 6.07754 6.07751 0.833374 14.8742 0.833374H35.1258C43.9225 0.833374 49.1667 6.07754 49.1667 14.8742Z" fill="#E99F49"/>
<path d="M49.1667 35.1234V29.8309H39.3067C37.6875 29.8309 35.7783 28.6709 35.0292 27.2451L32.5158 22.4843C31.8392 21.2034 30.8725 21.2759 30.3408 22.6051L24.7825 36.6459C24.1783 38.2168 23.1633 38.2168 22.535 36.6459L19.78 29.6859C19.1275 27.9943 17.0975 26.6167 15.285 26.6167L0.833334 26.6893V35.1234C0.833334 43.7751 5.90833 48.9951 14.4392 49.1401C14.705 49.1642 14.995 49.1643 15.2608 49.1643H34.5942C34.9567 49.1643 35.3192 49.1642 35.6575 49.1401C44.14 48.9468 49.1667 43.7509 49.1667 35.1234V35.1234ZM0.833334 26.6917V34.6908C0.785 33.9175 0.760834 33.0958 0.760834 32.25V26.6917H0.833334Z" fill="#E99F49"/>
</svg>
