<svg width="363" height="124" viewBox="0 0 363 124" fill="none" xmlns="http://www.w3.org/2000/svg">
<path d="M2.92 15.105C2.72 15.105 2.56 15.045 2.44 14.925C2.33 14.805 2.275 14.64 2.275 14.43V5.025C2.275 4.795 2.33 4.62 2.44 4.5C2.55 4.38 2.695 4.32 2.875 4.32C3.045 4.32 3.175 4.35 3.265 4.41C3.355 4.47 3.455 4.575 3.565 4.725L9.925 13.155H9.55V4.995C9.55 4.775 9.605 4.61 9.715 4.5C9.835 4.38 10 4.32 10.21 4.32C10.42 4.32 10.58 4.38 10.69 4.5C10.8 4.61 10.855 4.775 10.855 4.995V14.43C10.855 14.64 10.8 14.805 10.69 14.925C10.59 15.045 10.455 15.105 10.285 15.105C10.125 15.105 9.99 15.07 9.88 15C9.78 14.94 9.675 14.835 9.565 14.685L3.22 6.255H3.565V14.43C3.565 14.64 3.51 14.805 3.4 14.925C3.29 15.045 3.13 15.105 2.92 15.105ZM15.5382 15.135C15.0382 15.135 14.5832 15.035 14.1732 14.835C13.7732 14.635 13.4582 14.365 13.2282 14.025C13.0082 13.685 12.8982 13.305 12.8982 12.885C12.8982 12.345 13.0332 11.92 13.3032 11.61C13.5732 11.3 14.0282 11.08 14.6682 10.95C15.3082 10.81 16.1682 10.74 17.2482 10.74H17.9532V11.61H17.2782C16.5082 11.61 15.8982 11.645 15.4482 11.715C15.0082 11.785 14.6982 11.91 14.5182 12.09C14.3382 12.26 14.2482 12.5 14.2482 12.81C14.2482 13.2 14.3832 13.52 14.6532 13.77C14.9332 14.02 15.3132 14.145 15.7932 14.145C16.1732 14.145 16.5082 14.055 16.7982 13.875C17.0882 13.685 17.3182 13.435 17.4882 13.125C17.6582 12.805 17.7432 12.44 17.7432 12.03V10.305C17.7432 9.715 17.6232 9.29 17.3832 9.03C17.1432 8.76 16.7382 8.625 16.1682 8.625C15.8382 8.625 15.4982 8.67 15.1482 8.76C14.7982 8.85 14.4332 8.99 14.0532 9.18C13.9032 9.25 13.7732 9.275 13.6632 9.255C13.5532 9.225 13.4632 9.165 13.3932 9.075C13.3332 8.975 13.2982 8.87 13.2882 8.76C13.2882 8.64 13.3132 8.525 13.3632 8.415C13.4232 8.305 13.5232 8.225 13.6632 8.175C14.1032 7.955 14.5382 7.8 14.9682 7.71C15.4082 7.61 15.8182 7.56 16.1982 7.56C16.8482 7.56 17.3832 7.665 17.8032 7.875C18.2232 8.075 18.5382 8.39 18.7482 8.82C18.9582 9.24 19.0632 9.78 19.0632 10.44V14.4C19.0632 14.63 19.0082 14.805 18.8982 14.925C18.7882 15.045 18.6282 15.105 18.4182 15.105C18.2182 15.105 18.0582 15.045 17.9382 14.925C17.8282 14.805 17.7732 14.63 17.7732 14.4V13.335H17.9082C17.8282 13.705 17.6782 14.025 17.4582 14.295C17.2382 14.565 16.9632 14.775 16.6332 14.925C16.3132 15.065 15.9482 15.135 15.5382 15.135ZM21.9162 15.105C21.7062 15.105 21.5412 15.045 21.4212 14.925C21.3012 14.805 21.2412 14.63 21.2412 14.4V8.28C21.2412 8.05 21.3012 7.88 21.4212 7.77C21.5412 7.65 21.7062 7.59 21.9162 7.59C22.1262 7.59 22.2862 7.65 22.3962 7.77C22.5162 7.88 22.5762 8.05 22.5762 8.28V9.555L22.4112 9.285C22.6012 8.735 22.9062 8.31 23.3262 8.01C23.7562 7.71 24.2662 7.56 24.8562 7.56C25.4762 7.56 25.9762 7.71 26.3562 8.01C26.7362 8.3 26.9912 8.745 27.1212 9.345H26.9112C27.0912 8.795 27.4112 8.36 27.8712 8.04C28.3412 7.72 28.8862 7.56 29.5062 7.56C30.0562 7.56 30.5062 7.67 30.8562 7.89C31.2162 8.1 31.4862 8.42 31.6662 8.85C31.8462 9.27 31.9362 9.81 31.9362 10.47V14.4C31.9362 14.63 31.8762 14.805 31.7562 14.925C31.6362 15.045 31.4712 15.105 31.2612 15.105C31.0412 15.105 30.8712 15.045 30.7512 14.925C30.6312 14.805 30.5712 14.63 30.5712 14.4V10.53C30.5712 9.89 30.4612 9.42 30.2412 9.12C30.0212 8.82 29.6512 8.67 29.1312 8.67C28.5612 8.67 28.1062 8.87 27.7662 9.27C27.4362 9.66 27.2712 10.2 27.2712 10.89V14.4C27.2712 14.63 27.2112 14.805 27.0912 14.925C26.9812 15.045 26.8162 15.105 26.5962 15.105C26.3762 15.105 26.2062 15.045 26.0862 14.925C25.9662 14.805 25.9062 14.63 25.9062 14.4V10.53C25.9062 9.89 25.7962 9.42 25.5762 9.12C25.3562 8.82 24.9862 8.67 24.4662 8.67C23.8962 8.67 23.4412 8.87 23.1012 9.27C22.7712 9.66 22.6062 10.2 22.6062 10.89V14.4C22.6062 14.87 22.3762 15.105 21.9162 15.105ZM36.4561 15.135C35.9561 15.135 35.5011 15.035 35.0911 14.835C34.6911 14.635 34.3761 14.365 34.1461 14.025C33.9261 13.685 33.8161 13.305 33.8161 12.885C33.8161 12.345 33.9511 11.92 34.2211 11.61C34.4911 11.3 34.9461 11.08 35.5861 10.95C36.2261 10.81 37.0861 10.74 38.1661 10.74H38.8711V11.61H38.1961C37.4261 11.61 36.8161 11.645 36.3661 11.715C35.9261 11.785 35.6161 11.91 35.4361 12.09C35.2561 12.26 35.1661 12.5 35.1661 12.81C35.1661 13.2 35.3011 13.52 35.5711 13.77C35.8511 14.02 36.2311 14.145 36.7111 14.145C37.0911 14.145 37.4261 14.055 37.7161 13.875C38.0061 13.685 38.2361 13.435 38.4061 13.125C38.5761 12.805 38.6611 12.44 38.6611 12.03V10.305C38.6611 9.715 38.5411 9.29 38.3011 9.03C38.0611 8.76 37.6561 8.625 37.0861 8.625C36.7561 8.625 36.4161 8.67 36.0661 8.76C35.7161 8.85 35.3511 8.99 34.9711 9.18C34.8211 9.25 34.6911 9.275 34.5811 9.255C34.4711 9.225 34.3811 9.165 34.3111 9.075C34.2511 8.975 34.2161 8.87 34.2061 8.76C34.2061 8.64 34.2311 8.525 34.2811 8.415C34.3411 8.305 34.4411 8.225 34.5811 8.175C35.0211 7.955 35.4561 7.8 35.8861 7.71C36.3261 7.61 36.7361 7.56 37.1161 7.56C37.7661 7.56 38.3011 7.665 38.7211 7.875C39.1411 8.075 39.4561 8.39 39.6661 8.82C39.8761 9.24 39.9811 9.78 39.9811 10.44V14.4C39.9811 14.63 39.9261 14.805 39.8161 14.925C39.7061 15.045 39.5461 15.105 39.3361 15.105C39.1361 15.105 38.9761 15.045 38.8561 14.925C38.7461 14.805 38.6911 14.63 38.6911 14.4V13.335H38.8261C38.7461 13.705 38.5961 14.025 38.3761 14.295C38.1561 14.565 37.8811 14.775 37.5511 14.925C37.2311 15.065 36.8661 15.135 36.4561 15.135ZM46.7003 15.06C46.4403 15.06 46.2253 14.975 46.0553 14.805C45.8853 14.635 45.8003 14.42 45.8003 14.16C45.8003 13.9 45.8853 13.69 46.0553 13.53C46.2253 13.37 46.4403 13.29 46.7003 13.29C46.9803 13.29 47.1953 13.37 47.3453 13.53C47.5053 13.69 47.5853 13.9 47.5853 14.16C47.5853 14.42 47.5053 14.635 47.3453 14.805C47.1953 14.975 46.9803 15.06 46.7003 15.06ZM46.7003 9.405C46.4403 9.405 46.2253 9.325 46.0553 9.165C45.8853 8.995 45.8003 8.78 45.8003 8.52C45.8003 8.26 45.8853 8.05 46.0553 7.89C46.2253 7.72 46.4403 7.635 46.7003 7.635C46.9803 7.635 47.1953 7.72 47.3453 7.89C47.5053 8.05 47.5853 8.26 47.5853 8.52C47.5853 8.78 47.5053 8.995 47.3453 9.165C47.1953 9.325 46.9803 9.405 46.7003 9.405Z" fill="#23690A"/>
<path d="M5.56 45.105C5.33 45.105 5.155 45.045 5.035 44.925C4.915 44.795 4.855 44.615 4.855 44.385V35.61H1.57C1.38 35.61 1.23 35.56 1.12 35.46C1.01 35.35 0.955 35.2 0.955 35.01C0.955 34.82 1.01 34.675 1.12 34.575C1.23 34.475 1.38 34.425 1.57 34.425H9.535C9.735 34.425 9.885 34.475 9.985 34.575C10.095 34.675 10.15 34.82 10.15 35.01C10.15 35.2 10.095 35.35 9.985 35.46C9.885 35.56 9.735 35.61 9.535 35.61H6.25V44.385C6.25 44.615 6.19 44.795 6.07 44.925C5.96 45.045 5.79 45.105 5.56 45.105ZM13.4241 45.135C12.6341 45.135 11.9541 44.985 11.3841 44.685C10.8241 44.375 10.3891 43.94 10.0791 43.38C9.7691 42.81 9.6141 42.14 9.6141 41.37C9.6141 40.61 9.7641 39.945 10.0641 39.375C10.3741 38.805 10.7941 38.36 11.3241 38.04C11.8641 37.72 12.4791 37.56 13.1691 37.56C13.6591 37.56 14.0991 37.645 14.4891 37.815C14.8891 37.975 15.2291 38.21 15.5091 38.52C15.7891 38.83 15.9991 39.21 16.1391 39.66C16.2891 40.1 16.3641 40.6 16.3641 41.16C16.3641 41.32 16.3141 41.445 16.2141 41.535C16.1241 41.615 15.9891 41.655 15.8091 41.655H10.6791V40.785H15.4641L15.2091 40.995C15.2091 40.475 15.1291 40.035 14.9691 39.675C14.8191 39.305 14.5941 39.025 14.2941 38.835C14.0041 38.645 13.6391 38.55 13.1991 38.55C12.7191 38.55 12.3091 38.665 11.9691 38.895C11.6291 39.115 11.3691 39.43 11.1891 39.84C11.0091 40.24 10.9191 40.705 10.9191 41.235V41.325C10.9191 42.225 11.1341 42.905 11.5641 43.365C11.9941 43.825 12.6141 44.055 13.4241 44.055C13.7441 44.055 14.0691 44.015 14.3991 43.935C14.7391 43.855 15.0641 43.71 15.3741 43.5C15.5241 43.41 15.6591 43.37 15.7791 43.38C15.9091 43.38 16.0141 43.42 16.0941 43.5C16.1741 43.57 16.2241 43.66 16.2441 43.77C16.2641 43.87 16.2491 43.98 16.1991 44.1C16.1491 44.22 16.0541 44.325 15.9141 44.415C15.5841 44.645 15.1891 44.825 14.7291 44.955C14.2791 45.075 13.8441 45.135 13.4241 45.135ZM20.3568 45.135C19.6068 45.135 19.0368 44.915 18.6468 44.475C18.2568 44.025 18.0618 43.38 18.0618 42.54V35.01C18.0618 34.78 18.1218 34.61 18.2418 34.5C18.3618 34.38 18.5268 34.32 18.7368 34.32C18.9568 34.32 19.1268 34.38 19.2468 34.5C19.3668 34.61 19.4268 34.78 19.4268 35.01V42.435C19.4268 42.955 19.5318 43.345 19.7418 43.605C19.9618 43.855 20.2718 43.98 20.6718 43.98C20.7618 43.98 20.8418 43.98 20.9118 43.98C20.9818 43.97 21.0518 43.96 21.1218 43.95C21.2318 43.94 21.3118 43.97 21.3618 44.04C21.4118 44.11 21.4368 44.25 21.4368 44.46C21.4368 44.65 21.3918 44.8 21.3018 44.91C21.2218 45.01 21.0868 45.075 20.8968 45.105C20.8068 45.115 20.7168 45.12 20.6268 45.12C20.5368 45.13 20.4468 45.135 20.3568 45.135ZM25.8753 45.135C25.0853 45.135 24.4053 44.985 23.8353 44.685C23.2753 44.375 22.8403 43.94 22.5303 43.38C22.2203 42.81 22.0653 42.14 22.0653 41.37C22.0653 40.61 22.2153 39.945 22.5153 39.375C22.8253 38.805 23.2453 38.36 23.7753 38.04C24.3153 37.72 24.9303 37.56 25.6203 37.56C26.1103 37.56 26.5503 37.645 26.9403 37.815C27.3403 37.975 27.6803 38.21 27.9603 38.52C28.2403 38.83 28.4503 39.21 28.5903 39.66C28.7403 40.1 28.8153 40.6 28.8153 41.16C28.8153 41.32 28.7653 41.445 28.6653 41.535C28.5753 41.615 28.4403 41.655 28.2603 41.655H23.1303V40.785H27.9153L27.6603 40.995C27.6603 40.475 27.5803 40.035 27.4203 39.675C27.2703 39.305 27.0453 39.025 26.7453 38.835C26.4553 38.645 26.0903 38.55 25.6503 38.55C25.1703 38.55 24.7603 38.665 24.4203 38.895C24.0803 39.115 23.8203 39.43 23.6403 39.84C23.4603 40.24 23.3703 40.705 23.3703 41.235V41.325C23.3703 42.225 23.5853 42.905 24.0153 43.365C24.4453 43.825 25.0653 44.055 25.8753 44.055C26.1953 44.055 26.5203 44.015 26.8503 43.935C27.1903 43.855 27.5153 43.71 27.8253 43.5C27.9753 43.41 28.1103 43.37 28.2303 43.38C28.3603 43.38 28.4653 43.42 28.5453 43.5C28.6253 43.57 28.6753 43.66 28.6953 43.77C28.7153 43.87 28.7003 43.98 28.6503 44.1C28.6003 44.22 28.5053 44.325 28.3653 44.415C28.0353 44.645 27.6403 44.825 27.1803 44.955C26.7303 45.075 26.2953 45.135 25.8753 45.135ZM31.188 47.805C30.978 47.805 30.813 47.745 30.693 47.625C30.573 47.505 30.513 47.335 30.513 47.115V38.28C30.513 38.05 30.573 37.88 30.693 37.77C30.813 37.65 30.978 37.59 31.188 37.59C31.408 37.59 31.573 37.65 31.683 37.77C31.803 37.88 31.863 38.05 31.863 38.28V39.645L31.698 39.375C31.858 38.825 32.173 38.385 32.643 38.055C33.113 37.725 33.678 37.56 34.338 37.56C34.988 37.56 35.553 37.715 36.033 38.025C36.513 38.325 36.888 38.76 37.158 39.33C37.428 39.89 37.563 40.56 37.563 41.34C37.563 42.11 37.428 42.785 37.158 43.365C36.898 43.935 36.523 44.375 36.033 44.685C35.553 44.985 34.988 45.135 34.338 45.135C33.688 45.135 33.128 44.97 32.658 44.64C32.188 44.31 31.873 43.875 31.713 43.335H31.878V47.115C31.878 47.335 31.818 47.505 31.698 47.625C31.578 47.745 31.408 47.805 31.188 47.805ZM34.023 44.055C34.453 44.055 34.828 43.95 35.148 43.74C35.478 43.53 35.733 43.225 35.913 42.825C36.093 42.425 36.183 41.93 36.183 41.34C36.183 40.46 35.988 39.79 35.598 39.33C35.208 38.87 34.683 38.64 34.023 38.64C33.583 38.64 33.198 38.745 32.868 38.955C32.548 39.155 32.298 39.455 32.118 39.855C31.948 40.255 31.863 40.75 31.863 41.34C31.863 42.22 32.058 42.895 32.448 43.365C32.838 43.825 33.363 44.055 34.023 44.055ZM42.4217 45.135C41.7017 45.135 41.0767 44.98 40.5467 44.67C40.0167 44.36 39.6067 43.92 39.3167 43.35C39.0267 42.78 38.8817 42.11 38.8817 41.34C38.8817 40.76 38.9617 40.24 39.1217 39.78C39.2917 39.31 39.5317 38.91 39.8417 38.58C40.1517 38.25 40.5217 38 40.9517 37.83C41.3917 37.65 41.8817 37.56 42.4217 37.56C43.1417 37.56 43.7667 37.715 44.2967 38.025C44.8267 38.335 45.2367 38.775 45.5267 39.345C45.8167 39.905 45.9617 40.57 45.9617 41.34C45.9617 41.92 45.8767 42.445 45.7067 42.915C45.5467 43.385 45.3117 43.785 45.0017 44.115C44.6917 44.445 44.3167 44.7 43.8767 44.88C43.4467 45.05 42.9617 45.135 42.4217 45.135ZM42.4217 44.055C42.8617 44.055 43.2417 43.95 43.5617 43.74C43.8917 43.53 44.1417 43.225 44.3117 42.825C44.4917 42.425 44.5817 41.93 44.5817 41.34C44.5817 40.46 44.3867 39.79 43.9967 39.33C43.6067 38.87 43.0817 38.64 42.4217 38.64C41.9917 38.64 41.6117 38.745 41.2817 38.955C40.9617 39.155 40.7117 39.455 40.5317 39.855C40.3517 40.255 40.2617 40.75 40.2617 41.34C40.2617 42.22 40.4567 42.895 40.8467 43.365C41.2467 43.825 41.7717 44.055 42.4217 44.055ZM48.3852 45.105C48.1752 45.105 48.0102 45.045 47.8902 44.925C47.7702 44.805 47.7102 44.63 47.7102 44.4V38.28C47.7102 38.05 47.7702 37.88 47.8902 37.77C48.0102 37.65 48.1752 37.59 48.3852 37.59C48.5952 37.59 48.7552 37.65 48.8652 37.77C48.9852 37.88 49.0452 38.05 49.0452 38.28V39.51L48.8802 39.285C49.0902 38.715 49.4302 38.285 49.9002 37.995C50.3802 37.705 50.9252 37.56 51.5352 37.56C52.1252 37.56 52.6102 37.665 52.9902 37.875C53.3702 38.085 53.6552 38.405 53.8452 38.835C54.0352 39.265 54.1302 39.81 54.1302 40.47V44.4C54.1302 44.63 54.0702 44.805 53.9502 44.925C53.8402 45.045 53.6752 45.105 53.4552 45.105C53.2352 45.105 53.0652 45.045 52.9452 44.925C52.8252 44.805 52.7652 44.63 52.7652 44.4V40.545C52.7652 39.895 52.6402 39.42 52.3902 39.12C52.1402 38.82 51.7402 38.67 51.1902 38.67C50.5502 38.67 50.0352 38.87 49.6452 39.27C49.2652 39.66 49.0752 40.19 49.0752 40.86V44.4C49.0752 44.87 48.8452 45.105 48.3852 45.105ZM60.8654 45.06C60.6054 45.06 60.3904 44.975 60.2204 44.805C60.0504 44.635 59.9654 44.42 59.9654 44.16C59.9654 43.9 60.0504 43.69 60.2204 43.53C60.3904 43.37 60.6054 43.29 60.8654 43.29C61.1454 43.29 61.3604 43.37 61.5104 43.53C61.6704 43.69 61.7504 43.9 61.7504 44.16C61.7504 44.42 61.6704 44.635 61.5104 44.805C61.3604 44.975 61.1454 45.06 60.8654 45.06ZM60.8654 39.405C60.6054 39.405 60.3904 39.325 60.2204 39.165C60.0504 38.995 59.9654 38.78 59.9654 38.52C59.9654 38.26 60.0504 38.05 60.2204 37.89C60.3904 37.72 60.6054 37.635 60.8654 37.635C61.1454 37.635 61.3604 37.72 61.5104 37.89C61.6704 38.05 61.7504 38.26 61.7504 38.52C61.7504 38.78 61.6704 38.995 61.5104 39.165C61.3604 39.325 61.1454 39.405 60.8654 39.405Z" fill="#23690A"/>
<path d="M2.965 75.105C2.745 75.105 2.575 75.045 2.455 74.925C2.335 74.795 2.275 74.615 2.275 74.385V65.025C2.275 64.795 2.335 64.62 2.455 64.5C2.575 64.38 2.745 64.32 2.965 64.32C3.195 64.32 3.37 64.38 3.49 64.5C3.61 64.62 3.67 64.795 3.67 65.025V69.21H3.7L8.44 64.695C8.58 64.565 8.71 64.47 8.83 64.41C8.96 64.35 9.1 64.32 9.25 64.32C9.46 64.32 9.61 64.375 9.7 64.485C9.8 64.585 9.84 64.71 9.82 64.86C9.8 65 9.725 65.135 9.595 65.265L4.645 69.915L4.66 69.21L9.835 74.07C9.995 74.22 10.08 74.38 10.09 74.55C10.1 74.71 10.05 74.845 9.94 74.955C9.84 75.055 9.685 75.105 9.475 75.105C9.305 75.105 9.16 75.07 9.04 75C8.93 74.93 8.8 74.82 8.65 74.67L3.7 70.035H3.67V74.385C3.67 74.615 3.61 74.795 3.49 74.925C3.38 75.045 3.205 75.105 2.965 75.105ZM14.5311 75.135C13.8111 75.135 13.1861 74.98 12.6561 74.67C12.1261 74.36 11.7161 73.92 11.4261 73.35C11.1361 72.78 10.9911 72.11 10.9911 71.34C10.9911 70.76 11.0711 70.24 11.2311 69.78C11.4011 69.31 11.6411 68.91 11.9511 68.58C12.2611 68.25 12.6311 68 13.0611 67.83C13.5011 67.65 13.9911 67.56 14.5311 67.56C15.2511 67.56 15.8761 67.715 16.4061 68.025C16.9361 68.335 17.3461 68.775 17.6361 69.345C17.9261 69.905 18.0711 70.57 18.0711 71.34C18.0711 71.92 17.9861 72.445 17.8161 72.915C17.6561 73.385 17.4211 73.785 17.1111 74.115C16.8011 74.445 16.4261 74.7 15.9861 74.88C15.5561 75.05 15.0711 75.135 14.5311 75.135ZM14.5311 74.055C14.9711 74.055 15.3511 73.95 15.6711 73.74C16.0011 73.53 16.2511 73.225 16.4211 72.825C16.6011 72.425 16.6911 71.93 16.6911 71.34C16.6911 70.46 16.4961 69.79 16.1061 69.33C15.7161 68.87 15.1911 68.64 14.5311 68.64C14.1011 68.64 13.7211 68.745 13.3911 68.955C13.0711 69.155 12.8211 69.455 12.6411 69.855C12.4611 70.255 12.3711 70.75 12.3711 71.34C12.3711 72.22 12.5661 72.895 12.9561 73.365C13.3561 73.825 13.8811 74.055 14.5311 74.055ZM22.7764 75.135C22.1864 75.135 21.6914 75.03 21.2914 74.82C20.9014 74.61 20.6064 74.305 20.4064 73.905C20.2164 73.505 20.1214 73.015 20.1214 72.435V68.745H19.1614C18.9814 68.745 18.8414 68.7 18.7414 68.61C18.6414 68.51 18.5914 68.38 18.5914 68.22C18.5914 68.05 18.6414 67.92 18.7414 67.83C18.8414 67.74 18.9814 67.695 19.1614 67.695H20.1214V66.06C20.1214 65.83 20.1814 65.66 20.3014 65.55C20.4214 65.43 20.5914 65.37 20.8114 65.37C21.0314 65.37 21.1964 65.43 21.3064 65.55C21.4264 65.66 21.4864 65.83 21.4864 66.06V67.695H23.3014C23.4914 67.695 23.6364 67.74 23.7364 67.83C23.8364 67.92 23.8864 68.05 23.8864 68.22C23.8864 68.38 23.8364 68.51 23.7364 68.61C23.6364 68.7 23.4914 68.745 23.3014 68.745H21.4864V72.315C21.4864 72.865 21.6014 73.28 21.8314 73.56C22.0614 73.84 22.4414 73.98 22.9714 73.98C23.1614 73.98 23.3214 73.965 23.4514 73.935C23.5814 73.895 23.6964 73.875 23.7964 73.875C23.8864 73.865 23.9614 73.895 24.0214 73.965C24.0914 74.035 24.1264 74.165 24.1264 74.355C24.1264 74.495 24.1014 74.625 24.0514 74.745C24.0114 74.855 23.9264 74.93 23.7964 74.97C23.6764 75.01 23.5164 75.045 23.3164 75.075C23.1164 75.115 22.9364 75.135 22.7764 75.135ZM27.4473 75.135C26.9473 75.135 26.4923 75.035 26.0823 74.835C25.6823 74.635 25.3673 74.365 25.1373 74.025C24.9173 73.685 24.8073 73.305 24.8073 72.885C24.8073 72.345 24.9423 71.92 25.2123 71.61C25.4823 71.3 25.9373 71.08 26.5773 70.95C27.2173 70.81 28.0773 70.74 29.1573 70.74H29.8623V71.61H29.1873C28.4173 71.61 27.8073 71.645 27.3573 71.715C26.9173 71.785 26.6073 71.91 26.4273 72.09C26.2473 72.26 26.1573 72.5 26.1573 72.81C26.1573 73.2 26.2923 73.52 26.5623 73.77C26.8423 74.02 27.2223 74.145 27.7023 74.145C28.0823 74.145 28.4173 74.055 28.7073 73.875C28.9973 73.685 29.2273 73.435 29.3973 73.125C29.5673 72.805 29.6523 72.44 29.6523 72.03V70.305C29.6523 69.715 29.5323 69.29 29.2923 69.03C29.0523 68.76 28.6473 68.625 28.0773 68.625C27.7473 68.625 27.4073 68.67 27.0573 68.76C26.7073 68.85 26.3423 68.99 25.9623 69.18C25.8123 69.25 25.6823 69.275 25.5723 69.255C25.4623 69.225 25.3723 69.165 25.3023 69.075C25.2423 68.975 25.2073 68.87 25.1973 68.76C25.1973 68.64 25.2223 68.525 25.2723 68.415C25.3323 68.305 25.4323 68.225 25.5723 68.175C26.0123 67.955 26.4473 67.8 26.8773 67.71C27.3173 67.61 27.7273 67.56 28.1073 67.56C28.7573 67.56 29.2923 67.665 29.7123 67.875C30.1323 68.075 30.4473 68.39 30.6573 68.82C30.8673 69.24 30.9723 69.78 30.9723 70.44V74.4C30.9723 74.63 30.9173 74.805 30.8073 74.925C30.6973 75.045 30.5373 75.105 30.3273 75.105C30.1273 75.105 29.9673 75.045 29.8473 74.925C29.7373 74.805 29.6823 74.63 29.6823 74.4V73.335H29.8173C29.7373 73.705 29.5873 74.025 29.3673 74.295C29.1473 74.565 28.8723 74.775 28.5423 74.925C28.2223 75.065 27.8573 75.135 27.4473 75.135ZM37.6915 75.06C37.4315 75.06 37.2165 74.975 37.0465 74.805C36.8765 74.635 36.7915 74.42 36.7915 74.16C36.7915 73.9 36.8765 73.69 37.0465 73.53C37.2165 73.37 37.4315 73.29 37.6915 73.29C37.9715 73.29 38.1865 73.37 38.3365 73.53C38.4965 73.69 38.5765 73.9 38.5765 74.16C38.5765 74.42 38.4965 74.635 38.3365 74.805C38.1865 74.975 37.9715 75.06 37.6915 75.06ZM37.6915 69.405C37.4315 69.405 37.2165 69.325 37.0465 69.165C36.8765 68.995 36.7915 68.78 36.7915 68.52C36.7915 68.26 36.8765 68.05 37.0465 67.89C37.2165 67.72 37.4315 67.635 37.6915 67.635C37.9715 67.635 38.1865 67.72 38.3365 67.89C38.4965 68.05 38.5765 68.26 38.5765 68.52C38.5765 68.78 38.4965 68.995 38.3365 69.165C38.1865 69.325 37.9715 69.405 37.6915 69.405Z" fill="#23690A"/>
<rect x="281" y="90" width="82" height="34" rx="8" fill="#23690A"/>
<path d="M313.446 110.83C313.616 110.99 313.701 111.165 313.701 111.355C313.701 111.545 313.626 111.71 313.476 111.85C313.336 111.99 313.171 112.06 312.981 112.06C312.791 112.06 312.616 111.98 312.456 111.82L307.116 107.005V111.295C307.116 111.535 307.046 111.725 306.906 111.865C306.776 112.005 306.586 112.075 306.336 112.075C306.106 112.075 305.921 112.005 305.781 111.865C305.641 111.725 305.571 111.535 305.571 111.295V102.13C305.571 101.9 305.641 101.715 305.781 101.575C305.921 101.425 306.106 101.35 306.336 101.35C306.576 101.35 306.766 101.42 306.906 101.56C307.046 101.7 307.116 101.89 307.116 102.13V106.24L312.231 101.575C312.371 101.435 312.536 101.365 312.726 101.365C312.916 101.365 313.081 101.435 313.221 101.575C313.361 101.715 313.431 101.875 313.431 102.055C313.431 102.245 313.346 102.42 313.176 102.58L308.706 106.57L313.446 110.83ZM315.78 112.075C315.56 112.075 315.375 112.015 315.225 111.895C315.085 111.775 315.015 111.595 315.015 111.355V105.265C315.015 105.025 315.085 104.845 315.225 104.725C315.375 104.595 315.56 104.53 315.78 104.53C316 104.53 316.18 104.595 316.32 104.725C316.46 104.845 316.53 105.025 316.53 105.265V111.355C316.53 111.595 316.46 111.775 316.32 111.895C316.18 112.015 316 112.075 315.78 112.075ZM315.78 103.06C315.49 103.06 315.26 102.98 315.09 102.82C314.92 102.66 314.835 102.45 314.835 102.19C314.835 101.93 314.92 101.725 315.09 101.575C315.26 101.415 315.49 101.335 315.78 101.335C316.06 101.335 316.285 101.415 316.455 101.575C316.635 101.725 316.725 101.93 316.725 102.19C316.725 102.45 316.64 102.66 316.47 102.82C316.3 102.98 316.07 103.06 315.78 103.06ZM322.488 104.53C322.968 104.5 323.208 104.705 323.208 105.145C323.208 105.365 323.153 105.53 323.043 105.64C322.933 105.75 322.743 105.815 322.473 105.835L322.023 105.88C321.393 105.94 320.923 106.16 320.613 106.54C320.313 106.92 320.163 107.38 320.163 107.92V111.355C320.163 111.595 320.093 111.775 319.953 111.895C319.813 112.015 319.633 112.075 319.413 112.075C319.193 112.075 319.008 112.015 318.858 111.895C318.718 111.775 318.648 111.595 318.648 111.355V105.25C318.648 105.02 318.718 104.845 318.858 104.725C319.008 104.595 319.193 104.53 319.413 104.53C319.613 104.53 319.778 104.595 319.908 104.725C320.048 104.845 320.118 105.015 320.118 105.235V105.955C320.318 105.515 320.608 105.18 320.988 104.95C321.368 104.72 321.798 104.585 322.278 104.545L322.488 104.53ZM324.906 112.075C324.686 112.075 324.501 112.015 324.351 111.895C324.211 111.775 324.141 111.595 324.141 111.355V105.265C324.141 105.025 324.211 104.845 324.351 104.725C324.501 104.595 324.686 104.53 324.906 104.53C325.126 104.53 325.306 104.595 325.446 104.725C325.586 104.845 325.656 105.025 325.656 105.265V111.355C325.656 111.595 325.586 111.775 325.446 111.895C325.306 112.015 325.126 112.075 324.906 112.075ZM324.906 103.06C324.616 103.06 324.386 102.98 324.216 102.82C324.046 102.66 323.961 102.45 323.961 102.19C323.961 101.93 324.046 101.725 324.216 101.575C324.386 101.415 324.616 101.335 324.906 101.335C325.186 101.335 325.411 101.415 325.581 101.575C325.761 101.725 325.851 101.93 325.851 102.19C325.851 102.45 325.766 102.66 325.596 102.82C325.426 102.98 325.196 103.06 324.906 103.06ZM336.174 104.5C337.814 104.5 338.634 105.485 338.634 107.455V111.355C338.634 111.585 338.564 111.765 338.424 111.895C338.284 112.015 338.099 112.075 337.869 112.075C337.649 112.075 337.469 112.015 337.329 111.895C337.189 111.765 337.119 111.585 337.119 111.355V107.47C337.119 106.86 337.009 106.42 336.789 106.15C336.569 105.87 336.224 105.73 335.754 105.73C335.204 105.73 334.769 105.92 334.449 106.3C334.129 106.67 333.969 107.18 333.969 107.83V111.355C333.969 111.585 333.899 111.765 333.759 111.895C333.619 112.015 333.434 112.075 333.204 112.075C332.984 112.075 332.804 112.015 332.664 111.895C332.524 111.765 332.454 111.585 332.454 111.355V107.47C332.454 106.86 332.344 106.42 332.124 106.15C331.904 105.87 331.559 105.73 331.089 105.73C330.539 105.73 330.099 105.92 329.769 106.3C329.449 106.67 329.289 107.18 329.289 107.83V111.355C329.289 111.585 329.219 111.765 329.079 111.895C328.939 112.015 328.759 112.075 328.539 112.075C328.319 112.075 328.134 112.015 327.984 111.895C327.844 111.765 327.774 111.585 327.774 111.355V105.25C327.774 105.03 327.849 104.855 327.999 104.725C328.149 104.595 328.329 104.53 328.539 104.53C328.749 104.53 328.919 104.595 329.049 104.725C329.189 104.845 329.259 105.015 329.259 105.235V105.79C329.479 105.37 329.784 105.05 330.174 104.83C330.564 104.61 331.014 104.5 331.524 104.5C332.084 104.5 332.544 104.615 332.904 104.845C333.274 105.075 333.549 105.43 333.729 105.91C333.949 105.48 334.274 105.14 334.704 104.89C335.134 104.63 335.624 104.5 336.174 104.5Z" fill="white"/>
<rect x="53" width="310" height="21" rx="8" fill="#E4E4E4"/>
<rect x="71" y="30" width="292" height="21" rx="8" fill="#E4E4E4"/>
<rect x="45" y="60" width="318" height="21" rx="8" fill="#E4E4E4"/>
</svg>
