<svg width="46" height="50" viewBox="0 0 46 50" fill="none" xmlns="http://www.w3.org/2000/svg">
<path opacity="0.4" d="M43.5417 20.6259H36.5575C30.83 20.6259 26.1659 15.9617 26.1659 10.2342V3.25004C26.1659 1.92087 25.0784 0.833374 23.7492 0.833374H13.5025C6.05919 0.833374 0.041687 5.66671 0.041687 14.2942V35.7059C0.041687 44.3334 6.05919 49.1667 13.5025 49.1667H32.4975C39.9409 49.1667 45.9584 44.3334 45.9584 35.7059V23.0425C45.9584 21.7134 44.8708 20.6259 43.5417 20.6259Z" fill="#E99F49"/>
<path d="M32.1834 1.34078C31.1925 0.349943 29.4767 1.02661 29.4767 2.40411V10.8383C29.4767 14.3666 32.4734 17.2908 36.1225 17.2908C38.4184 17.3149 41.6084 17.3149 44.3392 17.3149C45.7167 17.3149 46.4417 15.6958 45.475 14.7291C41.995 11.2249 35.76 4.91744 32.1834 1.34078ZM20.97 26.7617C19.5442 26.3025 18.0217 26.5684 16.9584 27.4142C16.397 26.9891 15.7404 26.7075 15.0455 26.5938C14.3506 26.4801 13.6384 26.5377 12.9709 26.7617C9.90169 27.7525 8.93503 31.2567 9.78086 33.9392C11.0859 38.0475 15.4117 40.15 16.9825 40.15C18.505 40.15 22.9034 37.975 24.1842 33.9392C25.0059 31.2567 24.0392 27.7525 20.97 26.7617Z" fill="#E99F49"/>
</svg>
