<svg width="41" height="29" viewBox="0 0 41 29" fill="none" xmlns="http://www.w3.org/2000/svg">
<path d="M34.2083 4.70835C34.2083 2.55419 32.4458 0.791687 30.2916 0.791687H24.4166V4.70835H30.2916V9.89794L23.4766 18.4167H16.5833V8.62502H8.74996C4.42204 8.62502 0.916626 12.1304 0.916626 16.4584V22.3334H4.83329C4.83329 25.5842 7.45746 28.2084 10.7083 28.2084C13.9591 28.2084 16.5833 25.5842 16.5833 22.3334H25.3566L34.2083 11.2688V4.70835ZM4.83329 18.4167V16.4584C4.83329 14.3042 6.59579 12.5417 8.74996 12.5417H12.6666V18.4167H4.83329ZM10.7083 24.2917C9.63121 24.2917 8.74996 23.4104 8.74996 22.3334H12.6666C12.6666 23.4104 11.7854 24.2917 10.7083 24.2917Z" fill="white"/>
<path d="M16.5833 2.75H6.79163V6.66667H16.5833V2.75Z" fill="white"/>
<path d="M34.2083 16.4584C30.9574 16.4584 28.3333 19.0825 28.3333 22.3334C28.3333 25.5842 30.9574 28.2084 34.2083 28.2084C37.4591 28.2084 40.0833 25.5842 40.0833 22.3334C40.0833 19.0825 37.4591 16.4584 34.2083 16.4584ZM34.2083 24.2917C33.1312 24.2917 32.2499 23.4105 32.2499 22.3334C32.2499 21.2563 33.1312 20.375 34.2083 20.375C35.2853 20.375 36.1666 21.2563 36.1666 22.3334C36.1666 23.4105 35.2853 24.2917 34.2083 24.2917Z" fill="white"/>
</svg>
