<svg width="356" height="75" viewBox="0 0 356 75" fill="none" xmlns="http://www.w3.org/2000/svg">
<path d="M1.92 15.105C1.72 15.105 1.56 15.045 1.44 14.925C1.33 14.805 1.275 14.64 1.275 14.43V5.025C1.275 4.795 1.33 4.62 1.44 4.5C1.55 4.38 1.695 4.32 1.875 4.32C2.045 4.32 2.175 4.35 2.265 4.41C2.355 4.47 2.455 4.575 2.565 4.725L8.925 13.155H8.55V4.995C8.55 4.775 8.605 4.61 8.715 4.5C8.835 4.38 9 4.32 9.21 4.32C9.42 4.32 9.58 4.38 9.69 4.5C9.8 4.61 9.855 4.775 9.855 4.995V14.43C9.855 14.64 9.8 14.805 9.69 14.925C9.59 15.045 9.455 15.105 9.285 15.105C9.125 15.105 8.99 15.07 8.88 15C8.78 14.94 8.675 14.835 8.565 14.685L2.22 6.255H2.565V14.43C2.565 14.64 2.51 14.805 2.4 14.925C2.29 15.045 2.13 15.105 1.92 15.105ZM14.5382 15.135C14.0382 15.135 13.5832 15.035 13.1732 14.835C12.7732 14.635 12.4582 14.365 12.2282 14.025C12.0082 13.685 11.8982 13.305 11.8982 12.885C11.8982 12.345 12.0332 11.92 12.3032 11.61C12.5732 11.3 13.0282 11.08 13.6682 10.95C14.3082 10.81 15.1682 10.74 16.2482 10.74H16.9532V11.61H16.2782C15.5082 11.61 14.8982 11.645 14.4482 11.715C14.0082 11.785 13.6982 11.91 13.5182 12.09C13.3382 12.26 13.2482 12.5 13.2482 12.81C13.2482 13.2 13.3832 13.52 13.6532 13.77C13.9332 14.02 14.3132 14.145 14.7932 14.145C15.1732 14.145 15.5082 14.055 15.7982 13.875C16.0882 13.685 16.3182 13.435 16.4882 13.125C16.6582 12.805 16.7432 12.44 16.7432 12.03V10.305C16.7432 9.715 16.6232 9.29 16.3832 9.03C16.1432 8.76 15.7382 8.625 15.1682 8.625C14.8382 8.625 14.4982 8.67 14.1482 8.76C13.7982 8.85 13.4332 8.99 13.0532 9.18C12.9032 9.25 12.7732 9.275 12.6632 9.255C12.5532 9.225 12.4632 9.165 12.3932 9.075C12.3332 8.975 12.2982 8.87 12.2882 8.76C12.2882 8.64 12.3132 8.525 12.3632 8.415C12.4232 8.305 12.5232 8.225 12.6632 8.175C13.1032 7.955 13.5382 7.8 13.9682 7.71C14.4082 7.61 14.8182 7.56 15.1982 7.56C15.8482 7.56 16.3832 7.665 16.8032 7.875C17.2232 8.075 17.5382 8.39 17.7482 8.82C17.9582 9.24 18.0632 9.78 18.0632 10.44V14.4C18.0632 14.63 18.0082 14.805 17.8982 14.925C17.7882 15.045 17.6282 15.105 17.4182 15.105C17.2182 15.105 17.0582 15.045 16.9382 14.925C16.8282 14.805 16.7732 14.63 16.7732 14.4V13.335H16.9082C16.8282 13.705 16.6782 14.025 16.4582 14.295C16.2382 14.565 15.9632 14.775 15.6332 14.925C15.3132 15.065 14.9482 15.135 14.5382 15.135ZM20.9162 15.105C20.7062 15.105 20.5412 15.045 20.4212 14.925C20.3012 14.805 20.2412 14.63 20.2412 14.4V8.28C20.2412 8.05 20.3012 7.88 20.4212 7.77C20.5412 7.65 20.7062 7.59 20.9162 7.59C21.1262 7.59 21.2862 7.65 21.3962 7.77C21.5162 7.88 21.5762 8.05 21.5762 8.28V9.555L21.4112 9.285C21.6012 8.735 21.9062 8.31 22.3262 8.01C22.7562 7.71 23.2662 7.56 23.8562 7.56C24.4762 7.56 24.9762 7.71 25.3562 8.01C25.7362 8.3 25.9912 8.745 26.1212 9.345H25.9112C26.0912 8.795 26.4112 8.36 26.8712 8.04C27.3412 7.72 27.8862 7.56 28.5062 7.56C29.0562 7.56 29.5062 7.67 29.8562 7.89C30.2162 8.1 30.4862 8.42 30.6662 8.85C30.8462 9.27 30.9362 9.81 30.9362 10.47V14.4C30.9362 14.63 30.8762 14.805 30.7562 14.925C30.6362 15.045 30.4712 15.105 30.2612 15.105C30.0412 15.105 29.8712 15.045 29.7512 14.925C29.6312 14.805 29.5712 14.63 29.5712 14.4V10.53C29.5712 9.89 29.4612 9.42 29.2412 9.12C29.0212 8.82 28.6512 8.67 28.1312 8.67C27.5612 8.67 27.1062 8.87 26.7662 9.27C26.4362 9.66 26.2712 10.2 26.2712 10.89V14.4C26.2712 14.63 26.2112 14.805 26.0912 14.925C25.9812 15.045 25.8162 15.105 25.5962 15.105C25.3762 15.105 25.2062 15.045 25.0862 14.925C24.9662 14.805 24.9062 14.63 24.9062 14.4V10.53C24.9062 9.89 24.7962 9.42 24.5762 9.12C24.3562 8.82 23.9862 8.67 23.4662 8.67C22.8962 8.67 22.4412 8.87 22.1012 9.27C21.7712 9.66 21.6062 10.2 21.6062 10.89V14.4C21.6062 14.87 21.3762 15.105 20.9162 15.105ZM35.4561 15.135C34.9561 15.135 34.5011 15.035 34.0911 14.835C33.6911 14.635 33.3761 14.365 33.1461 14.025C32.9261 13.685 32.8161 13.305 32.8161 12.885C32.8161 12.345 32.9511 11.92 33.2211 11.61C33.4911 11.3 33.9461 11.08 34.5861 10.95C35.2261 10.81 36.0861 10.74 37.1661 10.74H37.8711V11.61H37.1961C36.4261 11.61 35.8161 11.645 35.3661 11.715C34.9261 11.785 34.6161 11.91 34.4361 12.09C34.2561 12.26 34.1661 12.5 34.1661 12.81C34.1661 13.2 34.3011 13.52 34.5711 13.77C34.8511 14.02 35.2311 14.145 35.7111 14.145C36.0911 14.145 36.4261 14.055 36.7161 13.875C37.0061 13.685 37.2361 13.435 37.4061 13.125C37.5761 12.805 37.6611 12.44 37.6611 12.03V10.305C37.6611 9.715 37.5411 9.29 37.3011 9.03C37.0611 8.76 36.6561 8.625 36.0861 8.625C35.7561 8.625 35.4161 8.67 35.0661 8.76C34.7161 8.85 34.3511 8.99 33.9711 9.18C33.8211 9.25 33.6911 9.275 33.5811 9.255C33.4711 9.225 33.3811 9.165 33.3111 9.075C33.2511 8.975 33.2161 8.87 33.2061 8.76C33.2061 8.64 33.2311 8.525 33.2811 8.415C33.3411 8.305 33.4411 8.225 33.5811 8.175C34.0211 7.955 34.4561 7.8 34.8861 7.71C35.3261 7.61 35.7361 7.56 36.1161 7.56C36.7661 7.56 37.3011 7.665 37.7211 7.875C38.1411 8.075 38.4561 8.39 38.6661 8.82C38.8761 9.24 38.9811 9.78 38.9811 10.44V14.4C38.9811 14.63 38.9261 14.805 38.8161 14.925C38.7061 15.045 38.5461 15.105 38.3361 15.105C38.1361 15.105 37.9761 15.045 37.8561 14.925C37.7461 14.805 37.6911 14.63 37.6911 14.4V13.335H37.8261C37.7461 13.705 37.5961 14.025 37.3761 14.295C37.1561 14.565 36.8811 14.775 36.5511 14.925C36.2311 15.065 35.8661 15.135 35.4561 15.135Z" fill="#23690A"/>
<path d="M316.74 15.135C316.27 15.135 315.815 15.095 315.375 15.015C314.935 14.945 314.52 14.835 314.13 14.685C313.74 14.535 313.39 14.35 313.08 14.13C312.95 14.04 312.855 13.93 312.795 13.8C312.745 13.67 312.73 13.545 312.75 13.425C312.78 13.295 312.835 13.185 312.915 13.095C313.005 13.005 313.11 12.95 313.23 12.93C313.35 12.91 313.48 12.95 313.62 13.05C314.08 13.36 314.56 13.585 315.06 13.725C315.57 13.865 316.13 13.935 316.74 13.935C317.62 13.935 318.265 13.775 318.675 13.455C319.095 13.135 319.305 12.715 319.305 12.195C319.305 11.765 319.155 11.43 318.855 11.19C318.555 10.94 318.05 10.745 317.34 10.605L315.75 10.275C314.81 10.075 314.105 9.745 313.635 9.285C313.175 8.825 312.945 8.21 312.945 7.44C312.945 6.97 313.04 6.545 313.23 6.165C313.42 5.775 313.69 5.44 314.04 5.16C314.39 4.88 314.8 4.665 315.27 4.515C315.75 4.365 316.28 4.29 316.86 4.29C317.48 4.29 318.06 4.375 318.6 4.545C319.15 4.715 319.645 4.965 320.085 5.295C320.205 5.385 320.285 5.495 320.325 5.625C320.365 5.745 320.37 5.865 320.34 5.985C320.32 6.105 320.265 6.205 320.175 6.285C320.095 6.365 319.99 6.41 319.86 6.42C319.74 6.43 319.605 6.385 319.455 6.285C319.055 6.005 318.645 5.805 318.225 5.685C317.805 5.555 317.345 5.49 316.845 5.49C316.335 5.49 315.89 5.57 315.51 5.73C315.14 5.89 314.85 6.115 314.64 6.405C314.44 6.685 314.34 7.015 314.34 7.395C314.34 7.855 314.48 8.215 314.76 8.475C315.04 8.735 315.51 8.935 316.17 9.075L317.745 9.39C318.745 9.6 319.485 9.925 319.965 10.365C320.455 10.795 320.7 11.375 320.7 12.105C320.7 12.565 320.605 12.98 320.415 13.35C320.235 13.72 319.975 14.04 319.635 14.31C319.295 14.57 318.88 14.775 318.39 14.925C317.9 15.065 317.35 15.135 316.74 15.135ZM325.354 15.135C324.764 15.135 324.269 15.03 323.869 14.82C323.479 14.61 323.184 14.305 322.984 13.905C322.794 13.505 322.699 13.015 322.699 12.435V8.745H321.739C321.559 8.745 321.419 8.7 321.319 8.61C321.219 8.51 321.169 8.38 321.169 8.22C321.169 8.05 321.219 7.92 321.319 7.83C321.419 7.74 321.559 7.695 321.739 7.695H322.699V6.06C322.699 5.83 322.759 5.66 322.879 5.55C322.999 5.43 323.169 5.37 323.389 5.37C323.609 5.37 323.774 5.43 323.884 5.55C324.004 5.66 324.064 5.83 324.064 6.06V7.695H325.879C326.069 7.695 326.214 7.74 326.314 7.83C326.414 7.92 326.464 8.05 326.464 8.22C326.464 8.38 326.414 8.51 326.314 8.61C326.214 8.7 326.069 8.745 325.879 8.745H324.064V12.315C324.064 12.865 324.179 13.28 324.409 13.56C324.639 13.84 325.019 13.98 325.549 13.98C325.739 13.98 325.899 13.965 326.029 13.935C326.159 13.895 326.274 13.875 326.374 13.875C326.464 13.865 326.539 13.895 326.599 13.965C326.669 14.035 326.704 14.165 326.704 14.355C326.704 14.495 326.679 14.625 326.629 14.745C326.589 14.855 326.504 14.93 326.374 14.97C326.254 15.01 326.094 15.045 325.894 15.075C325.694 15.115 325.514 15.135 325.354 15.135ZM330.024 15.135C329.524 15.135 329.069 15.035 328.659 14.835C328.259 14.635 327.944 14.365 327.714 14.025C327.494 13.685 327.384 13.305 327.384 12.885C327.384 12.345 327.519 11.92 327.789 11.61C328.059 11.3 328.514 11.08 329.154 10.95C329.794 10.81 330.654 10.74 331.734 10.74H332.439V11.61H331.764C330.994 11.61 330.384 11.645 329.934 11.715C329.494 11.785 329.184 11.91 329.004 12.09C328.824 12.26 328.734 12.5 328.734 12.81C328.734 13.2 328.869 13.52 329.139 13.77C329.419 14.02 329.799 14.145 330.279 14.145C330.659 14.145 330.994 14.055 331.284 13.875C331.574 13.685 331.804 13.435 331.974 13.125C332.144 12.805 332.229 12.44 332.229 12.03V10.305C332.229 9.715 332.109 9.29 331.869 9.03C331.629 8.76 331.224 8.625 330.654 8.625C330.324 8.625 329.984 8.67 329.634 8.76C329.284 8.85 328.919 8.99 328.539 9.18C328.389 9.25 328.259 9.275 328.149 9.255C328.039 9.225 327.949 9.165 327.879 9.075C327.819 8.975 327.784 8.87 327.774 8.76C327.774 8.64 327.799 8.525 327.849 8.415C327.909 8.305 328.009 8.225 328.149 8.175C328.589 7.955 329.024 7.8 329.454 7.71C329.894 7.61 330.304 7.56 330.684 7.56C331.334 7.56 331.869 7.665 332.289 7.875C332.709 8.075 333.024 8.39 333.234 8.82C333.444 9.24 333.549 9.78 333.549 10.44V14.4C333.549 14.63 333.494 14.805 333.384 14.925C333.274 15.045 333.114 15.105 332.904 15.105C332.704 15.105 332.544 15.045 332.424 14.925C332.314 14.805 332.259 14.63 332.259 14.4V13.335H332.394C332.314 13.705 332.164 14.025 331.944 14.295C331.724 14.565 331.449 14.775 331.119 14.925C330.799 15.065 330.434 15.135 330.024 15.135ZM338.728 15.135C338.138 15.135 337.643 15.03 337.243 14.82C336.853 14.61 336.558 14.305 336.358 13.905C336.168 13.505 336.073 13.015 336.073 12.435V8.745H335.113C334.933 8.745 334.793 8.7 334.693 8.61C334.593 8.51 334.543 8.38 334.543 8.22C334.543 8.05 334.593 7.92 334.693 7.83C334.793 7.74 334.933 7.695 335.113 7.695H336.073V6.06C336.073 5.83 336.133 5.66 336.253 5.55C336.373 5.43 336.543 5.37 336.763 5.37C336.983 5.37 337.148 5.43 337.258 5.55C337.378 5.66 337.438 5.83 337.438 6.06V7.695H339.253C339.443 7.695 339.588 7.74 339.688 7.83C339.788 7.92 339.838 8.05 339.838 8.22C339.838 8.38 339.788 8.51 339.688 8.61C339.588 8.7 339.443 8.745 339.253 8.745H337.438V12.315C337.438 12.865 337.553 13.28 337.783 13.56C338.013 13.84 338.393 13.98 338.923 13.98C339.113 13.98 339.273 13.965 339.403 13.935C339.533 13.895 339.648 13.875 339.748 13.875C339.838 13.865 339.913 13.895 339.973 13.965C340.043 14.035 340.078 14.165 340.078 14.355C340.078 14.495 340.053 14.625 340.003 14.745C339.963 14.855 339.878 14.93 339.748 14.97C339.628 15.01 339.468 15.045 339.268 15.075C339.068 15.115 338.888 15.135 338.728 15.135ZM343.684 15.135C343.094 15.135 342.599 15.025 342.199 14.805C341.809 14.585 341.519 14.26 341.329 13.83C341.139 13.4 341.044 12.86 341.044 12.21V8.28C341.044 8.05 341.099 7.88 341.209 7.77C341.329 7.65 341.499 7.59 341.719 7.59C341.939 7.59 342.109 7.65 342.229 7.77C342.349 7.88 342.409 8.05 342.409 8.28V12.21C342.409 12.83 342.534 13.29 342.784 13.59C343.034 13.88 343.429 14.025 343.969 14.025C344.569 14.025 345.054 13.825 345.424 13.425C345.804 13.025 345.994 12.495 345.994 11.835V8.28C345.994 8.05 346.049 7.88 346.159 7.77C346.279 7.65 346.449 7.59 346.669 7.59C346.889 7.59 347.059 7.65 347.179 7.77C347.299 7.88 347.359 8.05 347.359 8.28V14.4C347.359 14.87 347.139 15.105 346.699 15.105C346.479 15.105 346.309 15.045 346.189 14.925C346.079 14.805 346.024 14.63 346.024 14.4V13.095L346.219 13.35C346.019 13.93 345.694 14.375 345.244 14.685C344.804 14.985 344.284 15.135 343.684 15.135ZM352.075 15.135C351.625 15.135 351.17 15.085 350.71 14.985C350.26 14.875 349.835 14.69 349.435 14.43C349.325 14.36 349.245 14.275 349.195 14.175C349.155 14.065 349.14 13.96 349.15 13.86C349.17 13.75 349.215 13.655 349.285 13.575C349.355 13.495 349.44 13.45 349.54 13.44C349.65 13.42 349.765 13.445 349.885 13.515C350.275 13.735 350.65 13.89 351.01 13.98C351.38 14.07 351.745 14.115 352.105 14.115C352.655 14.115 353.07 14.015 353.35 13.815C353.63 13.615 353.77 13.35 353.77 13.02C353.77 12.74 353.675 12.525 353.485 12.375C353.305 12.215 353.02 12.095 352.63 12.015L351.235 11.73C350.615 11.59 350.145 11.36 349.825 11.04C349.515 10.71 349.36 10.29 349.36 9.78C349.36 9.33 349.48 8.94 349.72 8.61C349.97 8.27 350.315 8.01 350.755 7.83C351.195 7.65 351.7 7.56 352.27 7.56C352.71 7.56 353.125 7.62 353.515 7.74C353.915 7.85 354.275 8.02 354.595 8.25C354.715 8.32 354.79 8.41 354.82 8.52C354.86 8.62 354.865 8.725 354.835 8.835C354.815 8.935 354.77 9.02 354.7 9.09C354.63 9.16 354.54 9.205 354.43 9.225C354.32 9.235 354.2 9.205 354.07 9.135C353.78 8.935 353.48 8.795 353.17 8.715C352.87 8.625 352.57 8.58 352.27 8.58C351.73 8.58 351.32 8.685 351.04 8.895C350.77 9.105 350.635 9.38 350.635 9.72C350.635 9.98 350.715 10.195 350.875 10.365C351.045 10.535 351.31 10.66 351.67 10.74L353.065 11.025C353.715 11.165 354.205 11.39 354.535 11.7C354.865 12 355.03 12.41 355.03 12.93C355.03 13.61 354.76 14.15 354.22 14.55C353.69 14.94 352.975 15.135 352.075 15.135Z" fill="#23690A"/>
<path d="M11.085 33.305C11.175 33.495 11.22 33.68 11.22 33.86C11.22 34.19 11.085 34.47 10.815 34.7C10.555 34.93 10.255 35.045 9.915 35.045C9.685 35.045 9.475 34.985 9.285 34.865C9.095 34.745 8.945 34.565 8.835 34.325L8.16 32.81H3.3L2.61 34.325C2.5 34.565 2.345 34.745 2.145 34.865C1.955 34.985 1.745 35.045 1.515 35.045C1.175 35.045 0.865 34.93 0.585 34.7C0.315 34.47 0.18 34.19 0.18 33.86C0.18 33.68 0.225 33.495 0.315 33.305L4.275 25.175C4.405 24.905 4.595 24.7 4.845 24.56C5.105 24.41 5.39 24.335 5.7 24.335C6 24.335 6.28 24.41 6.54 24.56C6.8 24.7 6.995 24.905 7.125 25.175L11.085 33.305ZM4.23 30.74H7.23L5.73 27.395L4.23 30.74ZM13.5261 35.09C13.1461 35.09 12.8261 34.99 12.5661 34.79C12.3161 34.58 12.1911 34.27 12.1911 33.86V28.7C12.1911 28.29 12.3161 27.985 12.5661 27.785C12.8261 27.575 13.1461 27.47 13.5261 27.47C13.9061 27.47 14.2211 27.575 14.4711 27.785C14.7311 27.985 14.8611 28.29 14.8611 28.7V33.86C14.8611 34.27 14.7311 34.58 14.4711 34.79C14.2211 34.99 13.9061 35.09 13.5261 35.09ZM13.5261 26.42C13.0761 26.42 12.7161 26.305 12.4461 26.075C12.1861 25.835 12.0561 25.52 12.0561 25.13C12.0561 24.74 12.1861 24.43 12.4461 24.2C12.7161 23.97 13.0761 23.855 13.5261 23.855C13.9661 23.855 14.3211 23.97 14.5911 24.2C14.8611 24.43 14.9961 24.74 14.9961 25.13C14.9961 25.52 14.8611 25.835 14.5911 26.075C14.3311 26.305 13.9761 26.42 13.5261 26.42ZM21.0899 27.47C21.4299 27.44 21.6999 27.52 21.8999 27.71C22.0999 27.89 22.1999 28.16 22.1999 28.52C22.1999 28.92 22.1049 29.21 21.9149 29.39C21.7349 29.57 21.4049 29.685 20.9249 29.735L20.4749 29.78C19.9749 29.84 19.6149 30 19.3949 30.26C19.1849 30.51 19.0799 30.855 19.0799 31.295V33.86C19.0799 34.27 18.9499 34.58 18.6899 34.79C18.4399 34.99 18.1249 35.09 17.7449 35.09C17.3649 35.09 17.0449 34.99 16.7849 34.79C16.5349 34.58 16.4099 34.27 16.4099 33.86V28.67C16.4099 28.29 16.5349 27.995 16.7849 27.785C17.0449 27.575 17.3549 27.47 17.7149 27.47C18.0849 27.47 18.3799 27.57 18.5999 27.77C18.8299 27.97 18.9449 28.25 18.9449 28.61V28.895C19.1049 28.455 19.3649 28.115 19.7249 27.875C20.0949 27.635 20.4799 27.505 20.8799 27.485L21.0899 27.47ZM24.0291 35.09C23.6491 35.09 23.3291 34.99 23.0691 34.79C22.8191 34.58 22.6941 34.27 22.6941 33.86V25.595C22.6941 25.185 22.8191 24.875 23.0691 24.665C23.3291 24.455 23.6491 24.35 24.0291 24.35C24.4091 24.35 24.7241 24.455 24.9741 24.665C25.2341 24.875 25.3641 25.185 25.3641 25.595V33.86C25.3641 34.27 25.2341 34.58 24.9741 34.79C24.7241 34.99 24.4091 35.09 24.0291 35.09ZM30.3478 27.44C31.4878 27.44 32.3278 27.715 32.8678 28.265C33.4178 28.805 33.6928 29.63 33.6928 30.74V33.875C33.6928 34.255 33.5778 34.555 33.3478 34.775C33.1278 34.985 32.8178 35.09 32.4178 35.09C32.0678 35.09 31.7778 34.99 31.5478 34.79C31.3278 34.59 31.2078 34.32 31.1878 33.98C31.0478 34.34 30.8128 34.62 30.4828 34.82C30.1528 35.02 29.7578 35.12 29.2978 35.12C28.7878 35.12 28.3278 35.02 27.9178 34.82C27.5078 34.61 27.1828 34.325 26.9428 33.965C26.7128 33.595 26.5978 33.18 26.5978 32.72C26.5978 32.19 26.7328 31.77 27.0028 31.46C27.2828 31.14 27.7228 30.91 28.3228 30.77C28.9228 30.63 29.7328 30.56 30.7528 30.56H31.1578V30.38C31.1578 30.03 31.0778 29.78 30.9178 29.63C30.7578 29.47 30.4878 29.39 30.1078 29.39C29.6978 29.39 29.0978 29.53 28.3078 29.81C28.0778 29.89 27.8828 29.93 27.7228 29.93C27.4728 29.93 27.2728 29.84 27.1228 29.66C26.9728 29.48 26.8978 29.245 26.8978 28.955C26.8978 28.735 26.9428 28.555 27.0328 28.415C27.1228 28.275 27.2678 28.15 27.4678 28.04C27.8178 27.86 28.2578 27.715 28.7878 27.605C29.3178 27.495 29.8378 27.44 30.3478 27.44ZM29.9278 33.335C30.2878 33.335 30.5828 33.21 30.8128 32.96C31.0428 32.7 31.1578 32.37 31.1578 31.97V31.79H30.9178C30.2778 31.79 29.8228 31.85 29.5528 31.97C29.2828 32.08 29.1478 32.27 29.1478 32.54C29.1478 32.77 29.2178 32.96 29.3578 33.11C29.5078 33.26 29.6978 33.335 29.9278 33.335ZM40.1542 27.44C41.0342 27.44 41.6892 27.705 42.1192 28.235C42.5492 28.755 42.7642 29.55 42.7642 30.62V33.86C42.7642 34.24 42.6442 34.54 42.4042 34.76C42.1642 34.98 41.8392 35.09 41.4292 35.09C41.0192 35.09 40.6942 34.98 40.4542 34.76C40.2142 34.54 40.0942 34.24 40.0942 33.86V30.74C40.0942 30.3 40.0142 29.98 39.8542 29.78C39.7042 29.58 39.4742 29.48 39.1642 29.48C38.7642 29.48 38.4442 29.61 38.2042 29.87C37.9742 30.12 37.8592 30.46 37.8592 30.89V33.86C37.8592 34.24 37.7392 34.54 37.4992 34.76C37.2592 34.98 36.9342 35.09 36.5242 35.09C36.1142 35.09 35.7892 34.98 35.5492 34.76C35.3092 34.54 35.1892 34.24 35.1892 33.86V28.67C35.1892 28.32 35.3142 28.035 35.5642 27.815C35.8142 27.585 36.1392 27.47 36.5392 27.47C36.9192 27.47 37.2192 27.575 37.4392 27.785C37.6692 27.995 37.7842 28.27 37.7842 28.61C38.0442 28.23 38.3792 27.94 38.7892 27.74C39.1992 27.54 39.6542 27.44 40.1542 27.44ZM50.8262 27.47C51.2262 27.47 51.5462 27.585 51.7862 27.815C52.0262 28.035 52.1462 28.33 52.1462 28.7V34.1C52.1462 35.32 51.7762 36.245 51.0362 36.875C50.3062 37.505 49.2312 37.82 47.8112 37.82C47.2612 37.82 46.7412 37.77 46.2512 37.67C45.7612 37.57 45.3462 37.425 45.0062 37.235C44.8262 37.135 44.6812 37.005 44.5712 36.845C44.4712 36.685 44.4212 36.505 44.4212 36.305C44.4212 36.015 44.4912 35.78 44.6312 35.6C44.7812 35.42 44.9712 35.33 45.2012 35.33C45.3812 35.33 45.7062 35.405 46.1762 35.555C46.4862 35.655 46.7612 35.73 47.0012 35.78C47.2412 35.84 47.4862 35.87 47.7362 35.87C48.3462 35.87 48.7912 35.74 49.0712 35.48C49.3612 35.23 49.5062 34.83 49.5062 34.28V33.71C49.2862 34.04 48.9712 34.305 48.5612 34.505C48.1512 34.695 47.7062 34.79 47.2262 34.79C46.5862 34.79 46.0162 34.64 45.5162 34.34C45.0162 34.04 44.6262 33.615 44.3462 33.065C44.0662 32.505 43.9262 31.86 43.9262 31.13C43.9262 30.4 44.0662 29.755 44.3462 29.195C44.6262 28.635 45.0162 28.205 45.5162 27.905C46.0162 27.595 46.5862 27.44 47.2262 27.44C47.7162 27.44 48.1662 27.54 48.5762 27.74C48.9862 27.94 49.3012 28.215 49.5212 28.565C49.5412 28.225 49.6662 27.96 49.8962 27.77C50.1362 27.57 50.4462 27.47 50.8262 27.47ZM48.0362 32.795C48.5062 32.795 48.8712 32.65 49.1312 32.36C49.3912 32.07 49.5212 31.66 49.5212 31.13C49.5212 30.6 49.3912 30.185 49.1312 29.885C48.8712 29.585 48.5062 29.435 48.0362 29.435C47.5762 29.435 47.2162 29.585 46.9562 29.885C46.6962 30.175 46.5662 30.59 46.5662 31.13C46.5662 31.65 46.6962 32.06 46.9562 32.36C47.2262 32.65 47.5862 32.795 48.0362 32.795ZM60.2598 27.47C60.6598 27.47 60.9798 27.585 61.2198 27.815C61.4598 28.035 61.5798 28.33 61.5798 28.7V34.1C61.5798 35.32 61.2098 36.245 60.4698 36.875C59.7398 37.505 58.6648 37.82 57.2448 37.82C56.6948 37.82 56.1748 37.77 55.6848 37.67C55.1948 37.57 54.7798 37.425 54.4398 37.235C54.2598 37.135 54.1148 37.005 54.0048 36.845C53.9048 36.685 53.8548 36.505 53.8548 36.305C53.8548 36.015 53.9248 35.78 54.0648 35.6C54.2148 35.42 54.4048 35.33 54.6348 35.33C54.8148 35.33 55.1398 35.405 55.6098 35.555C55.9198 35.655 56.1948 35.73 56.4348 35.78C56.6748 35.84 56.9198 35.87 57.1698 35.87C57.7798 35.87 58.2248 35.74 58.5048 35.48C58.7948 35.23 58.9398 34.83 58.9398 34.28V33.71C58.7198 34.04 58.4048 34.305 57.9948 34.505C57.5848 34.695 57.1398 34.79 56.6598 34.79C56.0198 34.79 55.4498 34.64 54.9498 34.34C54.4498 34.04 54.0598 33.615 53.7798 33.065C53.4998 32.505 53.3598 31.86 53.3598 31.13C53.3598 30.4 53.4998 29.755 53.7798 29.195C54.0598 28.635 54.4498 28.205 54.9498 27.905C55.4498 27.595 56.0198 27.44 56.6598 27.44C57.1498 27.44 57.5998 27.54 58.0098 27.74C58.4198 27.94 58.7348 28.215 58.9548 28.565C58.9748 28.225 59.0998 27.96 59.3298 27.77C59.5698 27.57 59.8798 27.47 60.2598 27.47ZM57.4698 32.795C57.9398 32.795 58.3048 32.65 58.5648 32.36C58.8248 32.07 58.9548 31.66 58.9548 31.13C58.9548 30.6 58.8248 30.185 58.5648 29.885C58.3048 29.585 57.9398 29.435 57.4698 29.435C57.0098 29.435 56.6498 29.585 56.3898 29.885C56.1298 30.175 55.9998 30.59 55.9998 31.13C55.9998 31.65 56.1298 32.06 56.3898 32.36C56.6598 32.65 57.0198 32.795 57.4698 32.795ZM66.5734 27.44C67.7134 27.44 68.5534 27.715 69.0934 28.265C69.6434 28.805 69.9184 29.63 69.9184 30.74V33.875C69.9184 34.255 69.8034 34.555 69.5734 34.775C69.3534 34.985 69.0434 35.09 68.6434 35.09C68.2934 35.09 68.0034 34.99 67.7734 34.79C67.5534 34.59 67.4334 34.32 67.4134 33.98C67.2734 34.34 67.0384 34.62 66.7084 34.82C66.3784 35.02 65.9834 35.12 65.5234 35.12C65.0134 35.12 64.5534 35.02 64.1434 34.82C63.7334 34.61 63.4084 34.325 63.1684 33.965C62.9384 33.595 62.8234 33.18 62.8234 32.72C62.8234 32.19 62.9584 31.77 63.2284 31.46C63.5084 31.14 63.9484 30.91 64.5484 30.77C65.1484 30.63 65.9584 30.56 66.9784 30.56H67.3834V30.38C67.3834 30.03 67.3034 29.78 67.1434 29.63C66.9834 29.47 66.7134 29.39 66.3334 29.39C65.9234 29.39 65.3234 29.53 64.5334 29.81C64.3034 29.89 64.1084 29.93 63.9484 29.93C63.6984 29.93 63.4984 29.84 63.3484 29.66C63.1984 29.48 63.1234 29.245 63.1234 28.955C63.1234 28.735 63.1684 28.555 63.2584 28.415C63.3484 28.275 63.4934 28.15 63.6934 28.04C64.0434 27.86 64.4834 27.715 65.0134 27.605C65.5434 27.495 66.0634 27.44 66.5734 27.44ZM66.1534 33.335C66.5134 33.335 66.8084 33.21 67.0384 32.96C67.2684 32.7 67.3834 32.37 67.3834 31.97V31.79H67.1434C66.5034 31.79 66.0484 31.85 65.7784 31.97C65.5084 32.08 65.3734 32.27 65.3734 32.54C65.3734 32.77 65.4434 32.96 65.5834 33.11C65.7334 33.26 65.9234 33.335 66.1534 33.335ZM84.2568 24.35C84.6668 24.35 84.9918 24.475 85.2318 24.725C85.4818 24.965 85.6068 25.29 85.6068 25.7V33.725C85.6068 34.135 85.4818 34.465 85.2318 34.715C84.9918 34.965 84.6668 35.09 84.2568 35.09C83.8468 35.09 83.5168 34.97 83.2668 34.73C83.0268 34.48 82.9068 34.145 82.9068 33.725V30.725H78.5868V33.725C78.5868 34.135 78.4618 34.465 78.2118 34.715C77.9718 34.965 77.6468 35.09 77.2368 35.09C76.8268 35.09 76.4968 34.97 76.2468 34.73C76.0068 34.48 75.8868 34.145 75.8868 33.725V25.7C75.8868 25.29 76.0068 24.965 76.2468 24.725C76.4968 24.475 76.8268 24.35 77.2368 24.35C77.6468 24.35 77.9718 24.475 78.2118 24.725C78.4618 24.965 78.5868 25.29 78.5868 25.7V28.535H82.9068V25.7C82.9068 25.29 83.0268 24.965 83.2668 24.725C83.5168 24.475 83.8468 24.35 84.2568 24.35ZM90.7873 27.44C91.9273 27.44 92.7673 27.715 93.3073 28.265C93.8573 28.805 94.1323 29.63 94.1323 30.74V33.875C94.1323 34.255 94.0173 34.555 93.7873 34.775C93.5673 34.985 93.2573 35.09 92.8573 35.09C92.5073 35.09 92.2173 34.99 91.9873 34.79C91.7673 34.59 91.6473 34.32 91.6273 33.98C91.4873 34.34 91.2523 34.62 90.9223 34.82C90.5923 35.02 90.1973 35.12 89.7373 35.12C89.2273 35.12 88.7673 35.02 88.3573 34.82C87.9473 34.61 87.6223 34.325 87.3823 33.965C87.1523 33.595 87.0373 33.18 87.0373 32.72C87.0373 32.19 87.1723 31.77 87.4423 31.46C87.7223 31.14 88.1623 30.91 88.7623 30.77C89.3623 30.63 90.1723 30.56 91.1923 30.56H91.5973V30.38C91.5973 30.03 91.5173 29.78 91.3573 29.63C91.1973 29.47 90.9273 29.39 90.5473 29.39C90.1373 29.39 89.5373 29.53 88.7473 29.81C88.5173 29.89 88.3223 29.93 88.1623 29.93C87.9123 29.93 87.7123 29.84 87.5623 29.66C87.4123 29.48 87.3373 29.245 87.3373 28.955C87.3373 28.735 87.3823 28.555 87.4723 28.415C87.5623 28.275 87.7073 28.15 87.9073 28.04C88.2573 27.86 88.6973 27.715 89.2273 27.605C89.7573 27.495 90.2773 27.44 90.7873 27.44ZM90.3673 33.335C90.7273 33.335 91.0223 33.21 91.2523 32.96C91.4823 32.7 91.5973 32.37 91.5973 31.97V31.79H91.3573C90.7173 31.79 90.2623 31.85 89.9923 31.97C89.7223 32.08 89.5873 32.27 89.5873 32.54C89.5873 32.77 89.6573 32.96 89.7973 33.11C89.9473 33.26 90.1373 33.335 90.3673 33.335ZM100.309 27.47C100.649 27.44 100.919 27.52 101.119 27.71C101.319 27.89 101.419 28.16 101.419 28.52C101.419 28.92 101.324 29.21 101.134 29.39C100.954 29.57 100.624 29.685 100.144 29.735L99.6936 29.78C99.1936 29.84 98.8336 30 98.6136 30.26C98.4036 30.51 98.2986 30.855 98.2986 31.295V33.86C98.2986 34.27 98.1686 34.58 97.9086 34.79C97.6586 34.99 97.3436 35.09 96.9636 35.09C96.5836 35.09 96.2636 34.99 96.0036 34.79C95.7536 34.58 95.6286 34.27 95.6286 33.86V28.67C95.6286 28.29 95.7536 27.995 96.0036 27.785C96.2636 27.575 96.5736 27.47 96.9336 27.47C97.3036 27.47 97.5986 27.57 97.8186 27.77C98.0486 27.97 98.1636 28.25 98.1636 28.61V28.895C98.3236 28.455 98.5836 28.115 98.9436 27.875C99.3136 27.635 99.6986 27.505 100.099 27.485L100.309 27.47ZM107.069 33.185C107.739 33.225 108.074 33.525 108.074 34.085C108.074 34.435 107.939 34.695 107.669 34.865C107.399 35.035 107.014 35.105 106.514 35.075L106.094 35.045C105.194 34.975 104.509 34.705 104.039 34.235C103.579 33.755 103.349 33.09 103.349 32.24V29.585H102.914C102.114 29.585 101.714 29.255 101.714 28.595C101.714 27.945 102.114 27.62 102.914 27.62H103.349V26.645C103.349 26.265 103.469 25.965 103.709 25.745C103.949 25.515 104.274 25.4 104.684 25.4C105.094 25.4 105.419 25.515 105.659 25.745C105.899 25.965 106.019 26.265 106.019 26.645V27.62H106.844C107.644 27.62 108.044 27.945 108.044 28.595C108.044 29.255 107.644 29.585 106.844 29.585H106.019V32.465C106.019 32.655 106.074 32.815 106.184 32.945C106.304 33.075 106.454 33.145 106.634 33.155L107.069 33.185ZM112.218 27.44C113.358 27.44 114.198 27.715 114.738 28.265C115.288 28.805 115.563 29.63 115.563 30.74V33.875C115.563 34.255 115.448 34.555 115.218 34.775C114.998 34.985 114.688 35.09 114.288 35.09C113.938 35.09 113.648 34.99 113.418 34.79C113.198 34.59 113.078 34.32 113.058 33.98C112.918 34.34 112.683 34.62 112.353 34.82C112.023 35.02 111.628 35.12 111.168 35.12C110.658 35.12 110.198 35.02 109.788 34.82C109.378 34.61 109.053 34.325 108.813 33.965C108.583 33.595 108.468 33.18 108.468 32.72C108.468 32.19 108.603 31.77 108.873 31.46C109.153 31.14 109.593 30.91 110.193 30.77C110.793 30.63 111.603 30.56 112.623 30.56H113.028V30.38C113.028 30.03 112.948 29.78 112.788 29.63C112.628 29.47 112.358 29.39 111.978 29.39C111.568 29.39 110.968 29.53 110.178 29.81C109.948 29.89 109.753 29.93 109.593 29.93C109.343 29.93 109.143 29.84 108.993 29.66C108.843 29.48 108.768 29.245 108.768 28.955C108.768 28.735 108.813 28.555 108.903 28.415C108.993 28.275 109.138 28.15 109.338 28.04C109.688 27.86 110.128 27.715 110.658 27.605C111.188 27.495 111.708 27.44 112.218 27.44ZM111.798 33.335C112.158 33.335 112.453 33.21 112.683 32.96C112.913 32.7 113.028 32.37 113.028 31.97V31.79H112.788C112.148 31.79 111.693 31.85 111.423 31.97C111.153 32.08 111.018 32.27 111.018 32.54C111.018 32.77 111.088 32.96 111.228 33.11C111.378 33.26 111.568 33.335 111.798 33.335ZM122.024 27.44C122.904 27.44 123.559 27.705 123.989 28.235C124.419 28.755 124.634 29.55 124.634 30.62V33.86C124.634 34.24 124.514 34.54 124.274 34.76C124.034 34.98 123.709 35.09 123.299 35.09C122.889 35.09 122.564 34.98 122.324 34.76C122.084 34.54 121.964 34.24 121.964 33.86V30.74C121.964 30.3 121.884 29.98 121.724 29.78C121.574 29.58 121.344 29.48 121.034 29.48C120.634 29.48 120.314 29.61 120.074 29.87C119.844 30.12 119.729 30.46 119.729 30.89V33.86C119.729 34.24 119.609 34.54 119.369 34.76C119.129 34.98 118.804 35.09 118.394 35.09C117.984 35.09 117.659 34.98 117.419 34.76C117.179 34.54 117.059 34.24 117.059 33.86V28.67C117.059 28.32 117.184 28.035 117.434 27.815C117.684 27.585 118.009 27.47 118.409 27.47C118.789 27.47 119.089 27.575 119.309 27.785C119.539 27.995 119.654 28.27 119.654 28.61C119.914 28.23 120.249 27.94 120.659 27.74C121.069 27.54 121.524 27.44 122.024 27.44ZM130.506 33.185C131.176 33.225 131.511 33.525 131.511 34.085C131.511 34.435 131.376 34.695 131.106 34.865C130.836 35.035 130.451 35.105 129.951 35.075L129.531 35.045C128.631 34.975 127.946 34.705 127.476 34.235C127.016 33.755 126.786 33.09 126.786 32.24V29.585H126.351C125.551 29.585 125.151 29.255 125.151 28.595C125.151 27.945 125.551 27.62 126.351 27.62H126.786V26.645C126.786 26.265 126.906 25.965 127.146 25.745C127.386 25.515 127.711 25.4 128.121 25.4C128.531 25.4 128.856 25.515 129.096 25.745C129.336 25.965 129.456 26.265 129.456 26.645V27.62H130.281C131.081 27.62 131.481 27.945 131.481 28.595C131.481 29.255 131.081 29.585 130.281 29.585H129.456V32.465C129.456 32.655 129.511 32.815 129.621 32.945C129.741 33.075 129.891 33.145 130.071 33.155L130.506 33.185ZM135.94 35.12C135.13 35.12 134.415 34.965 133.795 34.655C133.185 34.335 132.71 33.885 132.37 33.305C132.04 32.725 131.875 32.045 131.875 31.265C131.875 30.485 132.04 29.81 132.37 29.24C132.71 28.66 133.185 28.215 133.795 27.905C134.405 27.595 135.12 27.44 135.94 27.44C136.76 27.44 137.475 27.595 138.085 27.905C138.695 28.215 139.165 28.66 139.495 29.24C139.835 29.81 140.005 30.485 140.005 31.265C140.005 32.045 139.835 32.725 139.495 33.305C139.165 33.885 138.695 34.335 138.085 34.655C137.475 34.965 136.76 35.12 135.94 35.12ZM135.94 33.125C136.89 33.125 137.365 32.505 137.365 31.265C137.365 30.025 136.89 29.405 135.94 29.405C134.99 29.405 134.515 30.025 134.515 31.265C134.515 32.505 134.99 33.125 135.94 33.125Z" fill="#23690A"/>
<path d="M322.24 29.03C322.57 29.03 322.83 29.125 323.02 29.315C323.22 29.495 323.32 29.74 323.32 30.05V32.66C323.32 33.16 323.28 33.545 323.2 33.815C323.13 34.075 322.995 34.28 322.795 34.43C322.605 34.58 322.315 34.71 321.925 34.82C321.535 34.92 321.1 34.995 320.62 35.045C320.15 35.105 319.71 35.135 319.3 35.135C318.15 35.135 317.15 34.92 316.3 34.49C315.46 34.05 314.815 33.425 314.365 32.615C313.915 31.795 313.69 30.825 313.69 29.705C313.69 28.605 313.915 27.65 314.365 26.84C314.815 26.02 315.455 25.39 316.285 24.95C317.115 24.51 318.085 24.29 319.195 24.29C319.895 24.29 320.52 24.375 321.07 24.545C321.63 24.705 322.15 24.955 322.63 25.295C322.8 25.415 322.92 25.545 322.99 25.685C323.07 25.825 323.11 26.005 323.11 26.225C323.11 26.535 323.025 26.8 322.855 27.02C322.685 27.23 322.48 27.335 322.24 27.335C322.08 27.335 321.94 27.315 321.82 27.275C321.71 27.225 321.565 27.145 321.385 27.035C321.015 26.835 320.665 26.69 320.335 26.6C320.015 26.51 319.665 26.465 319.285 26.465C318.335 26.465 317.625 26.73 317.155 27.26C316.695 27.79 316.465 28.605 316.465 29.705C316.465 30.835 316.705 31.675 317.185 32.225C317.675 32.765 318.42 33.035 319.42 33.035C319.9 33.035 320.375 32.985 320.845 32.885V30.92H319.765C319.435 30.92 319.18 30.84 319 30.68C318.82 30.51 318.73 30.275 318.73 29.975C318.73 29.675 318.82 29.445 319 29.285C319.18 29.115 319.435 29.03 319.765 29.03H322.24ZM328.377 27.44C329.517 27.44 330.357 27.715 330.897 28.265C331.447 28.805 331.722 29.63 331.722 30.74V33.875C331.722 34.255 331.607 34.555 331.377 34.775C331.157 34.985 330.847 35.09 330.447 35.09C330.097 35.09 329.807 34.99 329.577 34.79C329.357 34.59 329.237 34.32 329.217 33.98C329.077 34.34 328.842 34.62 328.512 34.82C328.182 35.02 327.787 35.12 327.327 35.12C326.817 35.12 326.357 35.02 325.947 34.82C325.537 34.61 325.212 34.325 324.972 33.965C324.742 33.595 324.627 33.18 324.627 32.72C324.627 32.19 324.762 31.77 325.032 31.46C325.312 31.14 325.752 30.91 326.352 30.77C326.952 30.63 327.762 30.56 328.782 30.56H329.187V30.38C329.187 30.03 329.107 29.78 328.947 29.63C328.787 29.47 328.517 29.39 328.137 29.39C327.727 29.39 327.127 29.53 326.337 29.81C326.107 29.89 325.912 29.93 325.752 29.93C325.502 29.93 325.302 29.84 325.152 29.66C325.002 29.48 324.927 29.245 324.927 28.955C324.927 28.735 324.972 28.555 325.062 28.415C325.152 28.275 325.297 28.15 325.497 28.04C325.847 27.86 326.287 27.715 326.817 27.605C327.347 27.495 327.867 27.44 328.377 27.44ZM327.957 33.335C328.317 33.335 328.612 33.21 328.842 32.96C329.072 32.7 329.187 32.37 329.187 31.97V31.79H328.947C328.307 31.79 327.852 31.85 327.582 31.97C327.312 32.08 327.177 32.27 327.177 32.54C327.177 32.77 327.247 32.96 327.387 33.11C327.537 33.26 327.727 33.335 327.957 33.335ZM339.773 27.47C340.173 27.47 340.493 27.585 340.733 27.815C340.973 28.035 341.093 28.33 341.093 28.7V34.1C341.093 35.32 340.723 36.245 339.983 36.875C339.253 37.505 338.178 37.82 336.758 37.82C336.208 37.82 335.688 37.77 335.198 37.67C334.708 37.57 334.293 37.425 333.953 37.235C333.773 37.135 333.628 37.005 333.518 36.845C333.418 36.685 333.368 36.505 333.368 36.305C333.368 36.015 333.438 35.78 333.578 35.6C333.728 35.42 333.918 35.33 334.148 35.33C334.328 35.33 334.653 35.405 335.123 35.555C335.433 35.655 335.708 35.73 335.948 35.78C336.188 35.84 336.433 35.87 336.683 35.87C337.293 35.87 337.738 35.74 338.018 35.48C338.308 35.23 338.453 34.83 338.453 34.28V33.71C338.233 34.04 337.918 34.305 337.508 34.505C337.098 34.695 336.653 34.79 336.173 34.79C335.533 34.79 334.963 34.64 334.463 34.34C333.963 34.04 333.573 33.615 333.293 33.065C333.013 32.505 332.873 31.86 332.873 31.13C332.873 30.4 333.013 29.755 333.293 29.195C333.573 28.635 333.963 28.205 334.463 27.905C334.963 27.595 335.533 27.44 336.173 27.44C336.663 27.44 337.113 27.54 337.523 27.74C337.933 27.94 338.248 28.215 338.468 28.565C338.488 28.225 338.613 27.96 338.843 27.77C339.083 27.57 339.393 27.47 339.773 27.47ZM336.983 32.795C337.453 32.795 337.818 32.65 338.078 32.36C338.338 32.07 338.468 31.66 338.468 31.13C338.468 30.6 338.338 30.185 338.078 29.885C337.818 29.585 337.453 29.435 336.983 29.435C336.523 29.435 336.163 29.585 335.903 29.885C335.643 30.175 335.513 30.59 335.513 31.13C335.513 31.65 335.643 32.06 335.903 32.36C336.173 32.65 336.533 32.795 336.983 32.795ZM346.087 27.44C347.227 27.44 348.067 27.715 348.607 28.265C349.157 28.805 349.432 29.63 349.432 30.74V33.875C349.432 34.255 349.317 34.555 349.087 34.775C348.867 34.985 348.557 35.09 348.157 35.09C347.807 35.09 347.517 34.99 347.287 34.79C347.067 34.59 346.947 34.32 346.927 33.98C346.787 34.34 346.552 34.62 346.222 34.82C345.892 35.02 345.497 35.12 345.037 35.12C344.527 35.12 344.067 35.02 343.657 34.82C343.247 34.61 342.922 34.325 342.682 33.965C342.452 33.595 342.337 33.18 342.337 32.72C342.337 32.19 342.472 31.77 342.742 31.46C343.022 31.14 343.462 30.91 344.062 30.77C344.662 30.63 345.472 30.56 346.492 30.56H346.897V30.38C346.897 30.03 346.817 29.78 346.657 29.63C346.497 29.47 346.227 29.39 345.847 29.39C345.437 29.39 344.837 29.53 344.047 29.81C343.817 29.89 343.622 29.93 343.462 29.93C343.212 29.93 343.012 29.84 342.862 29.66C342.712 29.48 342.637 29.245 342.637 28.955C342.637 28.735 342.682 28.555 342.772 28.415C342.862 28.275 343.007 28.15 343.207 28.04C343.557 27.86 343.997 27.715 344.527 27.605C345.057 27.495 345.577 27.44 346.087 27.44ZM345.667 33.335C346.027 33.335 346.322 33.21 346.552 32.96C346.782 32.7 346.897 32.37 346.897 31.97V31.79H346.657C346.017 31.79 345.562 31.85 345.292 31.97C345.022 32.08 344.887 32.27 344.887 32.54C344.887 32.77 344.957 32.96 345.097 33.11C345.247 33.26 345.437 33.335 345.667 33.335ZM352.263 35.09C351.883 35.09 351.563 34.99 351.303 34.79C351.053 34.58 350.928 34.27 350.928 33.86V25.595C350.928 25.185 351.053 24.875 351.303 24.665C351.563 24.455 351.883 24.35 352.263 24.35C352.643 24.35 352.958 24.455 353.208 24.665C353.468 24.875 353.598 25.185 353.598 25.595V33.86C353.598 34.27 353.468 34.58 353.208 34.79C352.958 34.99 352.643 35.09 352.263 35.09Z" fill="#FF0000"/>
<path d="M305.055 64.51C305.675 64.7 306.15 65.02 306.48 65.47C306.81 65.91 306.975 66.455 306.975 67.105C306.975 67.685 306.82 68.195 306.51 68.635C306.21 69.065 305.775 69.4 305.205 69.64C304.645 69.88 303.985 70 303.225 70H299.235C298.825 70 298.51 69.89 298.29 69.67C298.07 69.45 297.96 69.135 297.96 68.725V60.7C297.96 60.29 298.07 59.975 298.29 59.755C298.51 59.535 298.825 59.425 299.235 59.425H303.075C304.185 59.425 305.065 59.675 305.715 60.175C306.375 60.665 306.705 61.33 306.705 62.17C306.705 62.71 306.56 63.19 306.27 63.61C305.98 64.02 305.575 64.32 305.055 64.51ZM300.645 63.58H302.61C303.13 63.58 303.51 63.5 303.75 63.34C303.99 63.18 304.11 62.925 304.11 62.575C304.11 62.205 303.99 61.935 303.75 61.765C303.51 61.595 303.13 61.51 302.61 61.51H300.645V63.58ZM302.88 67.915C303.43 67.915 303.82 67.83 304.05 67.66C304.29 67.48 304.41 67.19 304.41 66.79C304.41 66.39 304.29 66.105 304.05 65.935C303.82 65.755 303.43 65.665 302.88 65.665H300.645V67.915H302.88ZM314.21 67.63C314.44 67.63 314.625 67.72 314.765 67.9C314.915 68.08 314.99 68.315 314.99 68.605C314.99 69.005 314.795 69.31 314.405 69.52C314.065 69.69 313.66 69.835 313.19 69.955C312.73 70.065 312.305 70.12 311.915 70.12C311.095 70.12 310.38 69.965 309.77 69.655C309.16 69.345 308.69 68.9 308.36 68.32C308.03 67.74 307.865 67.06 307.865 66.28C307.865 65.54 308.02 64.88 308.33 64.3C308.65 63.71 309.09 63.255 309.65 62.935C310.22 62.605 310.86 62.44 311.57 62.44C312.26 62.44 312.865 62.59 313.385 62.89C313.905 63.19 314.305 63.615 314.585 64.165C314.875 64.715 315.02 65.36 315.02 66.1C315.02 66.33 314.965 66.51 314.855 66.64C314.755 66.76 314.605 66.82 314.405 66.82H310.445C310.515 67.3 310.67 67.645 310.91 67.855C311.15 68.065 311.505 68.17 311.975 68.17C312.225 68.17 312.455 68.145 312.665 68.095C312.875 68.035 313.11 67.955 313.37 67.855C313.52 67.795 313.665 67.745 313.805 67.705C313.955 67.655 314.09 67.63 314.21 67.63ZM311.645 64.24C311.295 64.24 311.015 64.355 310.805 64.585C310.595 64.805 310.47 65.13 310.43 65.56H312.785C312.725 64.68 312.345 64.24 311.645 64.24ZM320.917 62.47C321.257 62.44 321.527 62.52 321.727 62.71C321.927 62.89 322.027 63.16 322.027 63.52C322.027 63.92 321.932 64.21 321.742 64.39C321.562 64.57 321.232 64.685 320.752 64.735L320.302 64.78C319.802 64.84 319.442 65 319.222 65.26C319.012 65.51 318.907 65.855 318.907 66.295V68.86C318.907 69.27 318.777 69.58 318.517 69.79C318.267 69.99 317.952 70.09 317.572 70.09C317.192 70.09 316.872 69.99 316.612 69.79C316.362 69.58 316.237 69.27 316.237 68.86V63.67C316.237 63.29 316.362 62.995 316.612 62.785C316.872 62.575 317.182 62.47 317.542 62.47C317.912 62.47 318.207 62.57 318.427 62.77C318.657 62.97 318.772 63.25 318.772 63.61V63.895C318.932 63.455 319.192 63.115 319.552 62.875C319.922 62.635 320.307 62.505 320.707 62.485L320.917 62.47ZM327.546 62.44C328.406 62.44 329.046 62.705 329.466 63.235C329.886 63.755 330.096 64.55 330.096 65.62V68.86C330.096 69.24 329.976 69.54 329.736 69.76C329.496 69.98 329.171 70.09 328.761 70.09C328.351 70.09 328.026 69.98 327.786 69.76C327.546 69.54 327.426 69.24 327.426 68.86V65.56C327.426 64.84 327.116 64.48 326.496 64.48C326.096 64.48 325.776 64.61 325.536 64.87C325.306 65.12 325.191 65.46 325.191 65.89V68.86C325.191 69.24 325.071 69.54 324.831 69.76C324.591 69.98 324.266 70.09 323.856 70.09C323.446 70.09 323.121 69.98 322.881 69.76C322.641 69.54 322.521 69.24 322.521 68.86V60.55C322.521 60.2 322.646 59.915 322.896 59.695C323.146 59.465 323.476 59.35 323.886 59.35C324.276 59.35 324.591 59.455 324.831 59.665C325.071 59.875 325.191 60.155 325.191 60.505V63.505C325.461 63.155 325.796 62.89 326.196 62.71C326.596 62.53 327.046 62.44 327.546 62.44ZM335.038 62.44C336.178 62.44 337.018 62.715 337.558 63.265C338.108 63.805 338.383 64.63 338.383 65.74V68.875C338.383 69.255 338.268 69.555 338.038 69.775C337.818 69.985 337.508 70.09 337.108 70.09C336.758 70.09 336.468 69.99 336.238 69.79C336.018 69.59 335.898 69.32 335.878 68.98C335.738 69.34 335.503 69.62 335.173 69.82C334.843 70.02 334.448 70.12 333.988 70.12C333.478 70.12 333.018 70.02 332.608 69.82C332.198 69.61 331.873 69.325 331.633 68.965C331.403 68.595 331.288 68.18 331.288 67.72C331.288 67.19 331.423 66.77 331.693 66.46C331.973 66.14 332.413 65.91 333.013 65.77C333.613 65.63 334.423 65.56 335.443 65.56H335.848V65.38C335.848 65.03 335.768 64.78 335.608 64.63C335.448 64.47 335.178 64.39 334.798 64.39C334.388 64.39 333.788 64.53 332.998 64.81C332.768 64.89 332.573 64.93 332.413 64.93C332.163 64.93 331.963 64.84 331.813 64.66C331.663 64.48 331.588 64.245 331.588 63.955C331.588 63.735 331.633 63.555 331.723 63.415C331.813 63.275 331.958 63.15 332.158 63.04C332.508 62.86 332.948 62.715 333.478 62.605C334.008 62.495 334.528 62.44 335.038 62.44ZM334.618 68.335C334.978 68.335 335.273 68.21 335.503 67.96C335.733 67.7 335.848 67.37 335.848 66.97V66.79H335.608C334.968 66.79 334.513 66.85 334.243 66.97C333.973 67.08 333.838 67.27 333.838 67.54C333.838 67.77 333.908 67.96 334.048 68.11C334.198 68.26 334.388 68.335 334.618 68.335ZM342.79 70.12C342.12 70.12 341.555 70.07 341.095 69.97C340.635 69.87 340.23 69.71 339.88 69.49C339.74 69.42 339.63 69.3 339.55 69.13C339.47 68.96 339.43 68.77 339.43 68.56C339.43 68.29 339.5 68.07 339.64 67.9C339.79 67.72 339.975 67.63 340.195 67.63C340.345 67.63 340.485 67.65 340.615 67.69C340.745 67.72 340.905 67.775 341.095 67.855C341.415 67.965 341.695 68.05 341.935 68.11C342.185 68.17 342.5 68.2 342.88 68.2C343.15 68.2 343.36 68.165 343.51 68.095C343.67 68.015 343.75 67.905 343.75 67.765C343.75 67.655 343.71 67.57 343.63 67.51C343.56 67.45 343.42 67.395 343.21 67.345C343 67.285 342.645 67.205 342.145 67.105C341.255 66.935 340.61 66.68 340.21 66.34C339.82 65.99 339.625 65.5 339.625 64.87C339.625 64.41 339.765 63.995 340.045 63.625C340.335 63.255 340.73 62.965 341.23 62.755C341.73 62.545 342.29 62.44 342.91 62.44C343.36 62.44 343.795 62.495 344.215 62.605C344.645 62.715 345.025 62.87 345.355 63.07C345.665 63.25 345.82 63.54 345.82 63.94C345.82 64.22 345.745 64.455 345.595 64.645C345.445 64.835 345.26 64.93 345.04 64.93C344.78 64.93 344.47 64.845 344.11 64.675C343.87 64.565 343.655 64.485 343.465 64.435C343.285 64.375 343.07 64.345 342.82 64.345C342.57 64.345 342.375 64.385 342.235 64.465C342.095 64.535 342.025 64.64 342.025 64.78C342.025 64.94 342.12 65.065 342.31 65.155C342.51 65.245 342.9 65.345 343.48 65.455C344.45 65.625 345.135 65.885 345.535 66.235C345.935 66.575 346.135 67.07 346.135 67.72C346.135 68.45 345.83 69.035 345.22 69.475C344.62 69.905 343.81 70.12 342.79 70.12ZM348.568 70.09C348.188 70.09 347.868 69.99 347.608 69.79C347.358 69.58 347.233 69.27 347.233 68.86V63.7C347.233 63.29 347.358 62.985 347.608 62.785C347.868 62.575 348.188 62.47 348.568 62.47C348.948 62.47 349.263 62.575 349.513 62.785C349.773 62.985 349.903 63.29 349.903 63.7V68.86C349.903 69.27 349.773 69.58 349.513 69.79C349.263 69.99 348.948 70.09 348.568 70.09ZM348.568 61.42C348.118 61.42 347.758 61.305 347.488 61.075C347.228 60.835 347.098 60.52 347.098 60.13C347.098 59.74 347.228 59.43 347.488 59.2C347.758 58.97 348.118 58.855 348.568 58.855C349.008 58.855 349.363 58.97 349.633 59.2C349.903 59.43 350.038 59.74 350.038 60.13C350.038 60.52 349.903 60.835 349.633 61.075C349.373 61.305 349.018 61.42 348.568 61.42ZM352.787 70.09C352.407 70.09 352.087 69.99 351.827 69.79C351.577 69.58 351.452 69.27 351.452 68.86V60.595C351.452 60.185 351.577 59.875 351.827 59.665C352.087 59.455 352.407 59.35 352.787 59.35C353.167 59.35 353.482 59.455 353.732 59.665C353.992 59.875 354.122 60.185 354.122 60.595V68.86C354.122 69.27 353.992 69.58 353.732 69.79C353.482 69.99 353.167 70.09 352.787 70.09Z" fill="#23690A"/>
<path d="M2.325 70.09C1.915 70.09 1.585 69.965 1.335 69.715C1.085 69.465 0.96 69.135 0.96 68.725V60.7C0.96 60.29 1.07 59.975 1.29 59.755C1.51 59.535 1.825 59.425 2.235 59.425H7.275C7.725 59.425 8.055 59.515 8.265 59.695C8.475 59.865 8.58 60.14 8.58 60.52C8.58 60.89 8.47 61.16 8.25 61.33C8.04 61.5 7.715 61.585 7.275 61.585H3.675V63.535H6.975C7.415 63.535 7.74 63.625 7.95 63.805C8.17 63.985 8.28 64.26 8.28 64.63C8.28 65 8.17 65.27 7.95 65.44C7.74 65.61 7.415 65.695 6.975 65.695H3.675V68.725C3.675 69.145 3.55 69.48 3.3 69.73C3.06 69.97 2.735 70.09 2.325 70.09ZM15.3054 67.63C15.5354 67.63 15.7204 67.72 15.8604 67.9C16.0104 68.08 16.0854 68.315 16.0854 68.605C16.0854 69.005 15.8904 69.31 15.5004 69.52C15.1604 69.69 14.7554 69.835 14.2854 69.955C13.8254 70.065 13.4004 70.12 13.0104 70.12C12.1904 70.12 11.4754 69.965 10.8654 69.655C10.2554 69.345 9.78539 68.9 9.45539 68.32C9.12539 67.74 8.96039 67.06 8.96039 66.28C8.96039 65.54 9.11539 64.88 9.42539 64.3C9.74539 63.71 10.1854 63.255 10.7454 62.935C11.3154 62.605 11.9554 62.44 12.6654 62.44C13.3554 62.44 13.9604 62.59 14.4804 62.89C15.0004 63.19 15.4004 63.615 15.6804 64.165C15.9704 64.715 16.1154 65.36 16.1154 66.1C16.1154 66.33 16.0604 66.51 15.9504 66.64C15.8504 66.76 15.7004 66.82 15.5004 66.82H11.5404C11.6104 67.3 11.7654 67.645 12.0054 67.855C12.2454 68.065 12.6004 68.17 13.0704 68.17C13.3204 68.17 13.5504 68.145 13.7604 68.095C13.9704 68.035 14.2054 67.955 14.4654 67.855C14.6154 67.795 14.7604 67.745 14.9004 67.705C15.0504 67.655 15.1854 67.63 15.3054 67.63ZM12.7404 64.24C12.3904 64.24 12.1104 64.355 11.9004 64.585C11.6904 64.805 11.5654 65.13 11.5254 65.56H13.8804C13.8204 64.68 13.4404 64.24 12.7404 64.24ZM22.2227 62.44C22.8627 62.44 23.4277 62.595 23.9177 62.905C24.4077 63.215 24.7877 63.66 25.0577 64.24C25.3377 64.81 25.4777 65.475 25.4777 66.235C25.4777 66.995 25.3377 67.67 25.0577 68.26C24.7877 68.85 24.4027 69.31 23.9027 69.64C23.4127 69.96 22.8527 70.12 22.2227 70.12C21.7327 70.12 21.2827 70.02 20.8727 69.82C20.4727 69.62 20.1677 69.345 19.9577 68.995C19.9277 69.335 19.7927 69.605 19.5527 69.805C19.3227 69.995 19.0177 70.09 18.6377 70.09C18.2377 70.09 17.9177 69.98 17.6777 69.76C17.4477 69.53 17.3327 69.23 17.3327 68.86V60.55C17.3327 60.2 17.4577 59.915 17.7077 59.695C17.9577 59.465 18.2877 59.35 18.6977 59.35C19.0877 59.35 19.4027 59.455 19.6427 59.665C19.8827 59.875 20.0027 60.155 20.0027 60.505V63.49C20.2227 63.17 20.5277 62.915 20.9177 62.725C21.3177 62.535 21.7527 62.44 22.2227 62.44ZM21.3977 68.125C21.8577 68.125 22.2127 67.965 22.4627 67.645C22.7127 67.315 22.8377 66.845 22.8377 66.235C22.8377 65.655 22.7127 65.21 22.4627 64.9C22.2227 64.59 21.8727 64.435 21.4127 64.435C20.9427 64.435 20.5827 64.595 20.3327 64.915C20.0827 65.225 19.9577 65.675 19.9577 66.265C19.9577 66.865 20.0827 67.325 20.3327 67.645C20.5827 67.965 20.9377 68.125 21.3977 68.125ZM31.5977 62.44C32.2377 62.44 32.8027 62.595 33.2927 62.905C33.7827 63.215 34.1627 63.66 34.4327 64.24C34.7127 64.81 34.8527 65.475 34.8527 66.235C34.8527 66.995 34.7127 67.67 34.4327 68.26C34.1627 68.85 33.7777 69.31 33.2777 69.64C32.7877 69.96 32.2277 70.12 31.5977 70.12C31.1077 70.12 30.6577 70.02 30.2477 69.82C29.8477 69.62 29.5427 69.345 29.3327 68.995C29.3027 69.335 29.1677 69.605 28.9277 69.805C28.6977 69.995 28.3927 70.09 28.0127 70.09C27.6127 70.09 27.2927 69.98 27.0527 69.76C26.8227 69.53 26.7077 69.23 26.7077 68.86V60.55C26.7077 60.2 26.8327 59.915 27.0827 59.695C27.3327 59.465 27.6627 59.35 28.0727 59.35C28.4627 59.35 28.7777 59.455 29.0177 59.665C29.2577 59.875 29.3777 60.155 29.3777 60.505V63.49C29.5977 63.17 29.9027 62.915 30.2927 62.725C30.6927 62.535 31.1277 62.44 31.5977 62.44ZM30.7727 68.125C31.2327 68.125 31.5877 67.965 31.8377 67.645C32.0877 67.315 32.2127 66.845 32.2127 66.235C32.2127 65.655 32.0877 65.21 31.8377 64.9C31.5977 64.59 31.2477 64.435 30.7877 64.435C30.3177 64.435 29.9577 64.595 29.7077 64.915C29.4577 65.225 29.3327 65.675 29.3327 66.265C29.3327 66.865 29.4577 67.325 29.7077 67.645C29.9577 67.965 30.3127 68.125 30.7727 68.125ZM40.8566 63.22C40.9666 62.97 41.1166 62.785 41.3066 62.665C41.4966 62.545 41.7066 62.485 41.9366 62.485C42.2666 62.485 42.5616 62.595 42.8216 62.815C43.0816 63.035 43.2116 63.3 43.2116 63.61C43.2116 63.78 43.1716 63.945 43.0916 64.105L39.1166 72.07C38.9966 72.32 38.8366 72.505 38.6366 72.625C38.4466 72.745 38.2366 72.805 38.0066 72.805C37.6766 72.805 37.3816 72.695 37.1216 72.475C36.8716 72.265 36.7466 72.005 36.7466 71.695C36.7466 71.525 36.7916 71.35 36.8816 71.17L37.8566 69.205L35.3066 64.105C35.2266 63.925 35.1866 63.765 35.1866 63.625C35.1866 63.305 35.3266 63.035 35.6066 62.815C35.8866 62.585 36.2016 62.47 36.5516 62.47C36.7916 62.47 37.0116 62.535 37.2116 62.665C37.4216 62.785 37.5816 62.97 37.6916 63.22L39.2816 66.67L40.8566 63.22ZM57.4038 68.245C57.5838 68.515 57.6738 68.77 57.6738 69.01C57.6738 69.33 57.5388 69.6 57.2688 69.82C57.0088 70.03 56.7038 70.135 56.3538 70.135C56.1138 70.135 55.8888 70.08 55.6788 69.97C55.4688 69.86 55.2888 69.695 55.1388 69.475L53.1888 66.625C53.0488 66.425 52.8988 66.28 52.7388 66.19C52.5888 66.09 52.4088 66.04 52.1988 66.04H51.2238V68.725C51.2238 69.145 51.1038 69.48 50.8638 69.73C50.6238 69.97 50.2938 70.09 49.8738 70.09C49.4538 70.09 49.1188 69.97 48.8688 69.73C48.6288 69.48 48.5088 69.145 48.5088 68.725V60.7C48.5088 60.29 48.6188 59.975 48.8388 59.755C49.0588 59.535 49.3738 59.425 49.7838 59.425H53.5488C54.8288 59.425 55.7888 59.705 56.4288 60.265C57.0788 60.815 57.4038 61.615 57.4038 62.665C57.4038 63.465 57.1838 64.145 56.7438 64.705C56.3038 65.255 55.6838 65.625 54.8838 65.815C55.2138 65.865 55.4988 65.975 55.7388 66.145C55.9888 66.315 56.2338 66.57 56.4738 66.91L57.4038 68.245ZM53.1138 63.97C53.7238 63.97 54.1588 63.875 54.4188 63.685C54.6888 63.495 54.8238 63.185 54.8238 62.755C54.8238 62.315 54.6888 62 54.4188 61.81C54.1588 61.61 53.7238 61.51 53.1138 61.51H51.1938V63.97H53.1138ZM62.2814 62.44C63.4214 62.44 64.2614 62.715 64.8014 63.265C65.3514 63.805 65.6264 64.63 65.6264 65.74V68.875C65.6264 69.255 65.5114 69.555 65.2814 69.775C65.0614 69.985 64.7514 70.09 64.3514 70.09C64.0014 70.09 63.7114 69.99 63.4814 69.79C63.2614 69.59 63.1414 69.32 63.1214 68.98C62.9814 69.34 62.7464 69.62 62.4164 69.82C62.0864 70.02 61.6914 70.12 61.2314 70.12C60.7214 70.12 60.2614 70.02 59.8514 69.82C59.4414 69.61 59.1164 69.325 58.8764 68.965C58.6464 68.595 58.5314 68.18 58.5314 67.72C58.5314 67.19 58.6664 66.77 58.9364 66.46C59.2164 66.14 59.6564 65.91 60.2564 65.77C60.8564 65.63 61.6664 65.56 62.6864 65.56H63.0914V65.38C63.0914 65.03 63.0114 64.78 62.8514 64.63C62.6914 64.47 62.4214 64.39 62.0414 64.39C61.6314 64.39 61.0314 64.53 60.2414 64.81C60.0114 64.89 59.8164 64.93 59.6564 64.93C59.4064 64.93 59.2064 64.84 59.0564 64.66C58.9064 64.48 58.8314 64.245 58.8314 63.955C58.8314 63.735 58.8764 63.555 58.9664 63.415C59.0564 63.275 59.2014 63.15 59.4014 63.04C59.7514 62.86 60.1914 62.715 60.7214 62.605C61.2514 62.495 61.7714 62.44 62.2814 62.44ZM61.8614 68.335C62.2214 68.335 62.5164 68.21 62.7464 67.96C62.9764 67.7 63.0914 67.37 63.0914 66.97V66.79H62.8514C62.2114 66.79 61.7564 66.85 61.4864 66.97C61.2164 67.08 61.0814 67.27 61.0814 67.54C61.0814 67.77 61.1514 67.96 61.2914 68.11C61.4414 68.26 61.6314 68.335 61.8614 68.335ZM70.0328 70.12C69.3628 70.12 68.7978 70.07 68.3378 69.97C67.8778 69.87 67.4728 69.71 67.1228 69.49C66.9828 69.42 66.8728 69.3 66.7928 69.13C66.7128 68.96 66.6728 68.77 66.6728 68.56C66.6728 68.29 66.7428 68.07 66.8828 67.9C67.0328 67.72 67.2178 67.63 67.4378 67.63C67.5878 67.63 67.7278 67.65 67.8578 67.69C67.9878 67.72 68.1478 67.775 68.3378 67.855C68.6578 67.965 68.9378 68.05 69.1778 68.11C69.4278 68.17 69.7428 68.2 70.1228 68.2C70.3928 68.2 70.6028 68.165 70.7528 68.095C70.9128 68.015 70.9928 67.905 70.9928 67.765C70.9928 67.655 70.9528 67.57 70.8728 67.51C70.8028 67.45 70.6628 67.395 70.4528 67.345C70.2428 67.285 69.8878 67.205 69.3878 67.105C68.4978 66.935 67.8528 66.68 67.4528 66.34C67.0628 65.99 66.8678 65.5 66.8678 64.87C66.8678 64.41 67.0078 63.995 67.2878 63.625C67.5778 63.255 67.9728 62.965 68.4728 62.755C68.9728 62.545 69.5328 62.44 70.1528 62.44C70.6028 62.44 71.0378 62.495 71.4578 62.605C71.8878 62.715 72.2678 62.87 72.5978 63.07C72.9078 63.25 73.0628 63.54 73.0628 63.94C73.0628 64.22 72.9878 64.455 72.8378 64.645C72.6878 64.835 72.5028 64.93 72.2828 64.93C72.0228 64.93 71.7128 64.845 71.3528 64.675C71.1128 64.565 70.8978 64.485 70.7078 64.435C70.5278 64.375 70.3128 64.345 70.0628 64.345C69.8128 64.345 69.6178 64.385 69.4778 64.465C69.3378 64.535 69.2678 64.64 69.2678 64.78C69.2678 64.94 69.3628 65.065 69.5528 65.155C69.7528 65.245 70.1428 65.345 70.7228 65.455C71.6928 65.625 72.3778 65.885 72.7778 66.235C73.1778 66.575 73.3778 67.07 73.3778 67.72C73.3778 68.45 73.0728 69.035 72.4628 69.475C71.8628 69.905 71.0528 70.12 70.0328 70.12ZM78.768 68.185C79.438 68.225 79.773 68.525 79.773 69.085C79.773 69.435 79.638 69.695 79.368 69.865C79.098 70.035 78.713 70.105 78.213 70.075L77.793 70.045C76.893 69.975 76.208 69.705 75.738 69.235C75.278 68.755 75.048 68.09 75.048 67.24V64.585H74.613C73.813 64.585 73.413 64.255 73.413 63.595C73.413 62.945 73.813 62.62 74.613 62.62H75.048V61.645C75.048 61.265 75.168 60.965 75.408 60.745C75.648 60.515 75.973 60.4 76.383 60.4C76.793 60.4 77.118 60.515 77.358 60.745C77.598 60.965 77.718 61.265 77.718 61.645V62.62H78.543C79.343 62.62 79.743 62.945 79.743 63.595C79.743 64.255 79.343 64.585 78.543 64.585H77.718V67.465C77.718 67.655 77.773 67.815 77.883 67.945C78.003 68.075 78.153 68.145 78.333 68.155L78.768 68.185ZM83.9171 62.44C85.0571 62.44 85.8971 62.715 86.4371 63.265C86.9871 63.805 87.2621 64.63 87.2621 65.74V68.875C87.2621 69.255 87.1471 69.555 86.9171 69.775C86.6971 69.985 86.3871 70.09 85.9871 70.09C85.6371 70.09 85.3471 69.99 85.1171 69.79C84.8971 69.59 84.7771 69.32 84.7571 68.98C84.6171 69.34 84.3821 69.62 84.0521 69.82C83.7221 70.02 83.3271 70.12 82.8671 70.12C82.3571 70.12 81.8971 70.02 81.4871 69.82C81.0771 69.61 80.7521 69.325 80.5121 68.965C80.2821 68.595 80.1671 68.18 80.1671 67.72C80.1671 67.19 80.3021 66.77 80.5721 66.46C80.8521 66.14 81.2921 65.91 81.8921 65.77C82.4921 65.63 83.3021 65.56 84.3221 65.56H84.7271V65.38C84.7271 65.03 84.6471 64.78 84.4871 64.63C84.3271 64.47 84.0571 64.39 83.6771 64.39C83.2671 64.39 82.6671 64.53 81.8771 64.81C81.6471 64.89 81.4521 64.93 81.2921 64.93C81.0421 64.93 80.8421 64.84 80.6921 64.66C80.5421 64.48 80.4671 64.245 80.4671 63.955C80.4671 63.735 80.5121 63.555 80.6021 63.415C80.6921 63.275 80.8371 63.15 81.0371 63.04C81.3871 62.86 81.8271 62.715 82.3571 62.605C82.8871 62.495 83.4071 62.44 83.9171 62.44ZM83.4971 68.335C83.8571 68.335 84.1521 68.21 84.3821 67.96C84.6121 67.7 84.7271 67.37 84.7271 66.97V66.79H84.4871C83.8471 66.79 83.3921 66.85 83.1221 66.97C82.8521 67.08 82.7171 67.27 82.7171 67.54C82.7171 67.77 82.7871 67.96 82.9271 68.11C83.0771 68.26 83.2671 68.335 83.4971 68.335ZM93.7235 62.44C94.6035 62.44 95.2585 62.705 95.6885 63.235C96.1185 63.755 96.3335 64.55 96.3335 65.62V68.86C96.3335 69.24 96.2135 69.54 95.9735 69.76C95.7335 69.98 95.4085 70.09 94.9985 70.09C94.5885 70.09 94.2635 69.98 94.0235 69.76C93.7835 69.54 93.6635 69.24 93.6635 68.86V65.74C93.6635 65.3 93.5835 64.98 93.4235 64.78C93.2735 64.58 93.0435 64.48 92.7335 64.48C92.3335 64.48 92.0135 64.61 91.7735 64.87C91.5435 65.12 91.4285 65.46 91.4285 65.89V68.86C91.4285 69.24 91.3085 69.54 91.0685 69.76C90.8285 69.98 90.5035 70.09 90.0935 70.09C89.6835 70.09 89.3585 69.98 89.1185 69.76C88.8785 69.54 88.7585 69.24 88.7585 68.86V63.67C88.7585 63.32 88.8835 63.035 89.1335 62.815C89.3835 62.585 89.7085 62.47 90.1085 62.47C90.4885 62.47 90.7885 62.575 91.0085 62.785C91.2385 62.995 91.3535 63.27 91.3535 63.61C91.6135 63.23 91.9485 62.94 92.3585 62.74C92.7685 62.54 93.2235 62.44 93.7235 62.44ZM102.206 68.185C102.876 68.225 103.211 68.525 103.211 69.085C103.211 69.435 103.076 69.695 102.806 69.865C102.536 70.035 102.151 70.105 101.651 70.075L101.231 70.045C100.331 69.975 99.6455 69.705 99.1755 69.235C98.7155 68.755 98.4855 68.09 98.4855 67.24V64.585H98.0505C97.2505 64.585 96.8505 64.255 96.8505 63.595C96.8505 62.945 97.2505 62.62 98.0505 62.62H98.4855V61.645C98.4855 61.265 98.6055 60.965 98.8455 60.745C99.0855 60.515 99.4105 60.4 99.8205 60.4C100.231 60.4 100.556 60.515 100.796 60.745C101.036 60.965 101.156 61.265 101.156 61.645V62.62H101.981C102.781 62.62 103.181 62.945 103.181 63.595C103.181 64.255 102.781 64.585 101.981 64.585H101.156V67.465C101.156 67.655 101.211 67.815 101.321 67.945C101.441 68.075 101.591 68.145 101.771 68.155L102.206 68.185ZM109.016 63.22C109.126 62.97 109.276 62.785 109.466 62.665C109.656 62.545 109.866 62.485 110.096 62.485C110.426 62.485 110.721 62.595 110.981 62.815C111.241 63.035 111.371 63.3 111.371 63.61C111.371 63.78 111.331 63.945 111.251 64.105L107.276 72.07C107.156 72.32 106.996 72.505 106.796 72.625C106.606 72.745 106.396 72.805 106.166 72.805C105.836 72.805 105.541 72.695 105.281 72.475C105.031 72.265 104.906 72.005 104.906 71.695C104.906 71.525 104.951 71.35 105.041 71.17L106.016 69.205L103.466 64.105C103.386 63.925 103.346 63.765 103.346 63.625C103.346 63.305 103.486 63.035 103.766 62.815C104.046 62.585 104.361 62.47 104.711 62.47C104.951 62.47 105.171 62.535 105.371 62.665C105.581 62.785 105.741 62.97 105.851 63.22L107.441 66.67L109.016 63.22Z" fill="#23690A"/>
</svg>
