<svg width="50" height="50" viewBox="0 0 50 50" fill="none" xmlns="http://www.w3.org/2000/svg">
<rect width="50" height="50" rx="15" fill="#F6D9B6"/>
<path d="M36.4633 14.8335H35.83L30.4783 9.48179C30.2693 9.27622 29.9878 9.16101 29.6946 9.16101C29.4014 9.16101 29.1199 9.27622 28.9108 9.48179C28.4833 9.90929 28.4833 10.606 28.9108 11.0493L32.695 14.8335H17.305L21.0892 11.0493C21.5167 10.6218 21.5167 9.92513 21.0892 9.48179C20.8801 9.27622 20.5986 9.16101 20.3054 9.16101C20.0122 9.16101 19.7307 9.27622 19.5217 9.48179L14.1858 14.8335H13.5525C12.1275 14.8335 9.16666 14.8335 9.16666 18.8868C9.16666 20.4226 9.48332 21.436 10.1483 22.101C10.5283 22.4968 10.9875 22.7026 11.4783 22.8135C11.9375 22.9243 12.4283 22.9401 12.9033 22.9401H37.0967C37.5875 22.9401 38.0467 22.9085 38.49 22.8135C39.82 22.4968 40.8333 21.5468 40.8333 18.8868C40.8333 14.8335 37.8725 14.8335 36.4633 14.8335ZM36.1625 25H13.7108C12.7292 25 11.985 25.8709 12.1433 26.8367L13.4733 34.975C13.9167 37.6984 15.1042 40.8334 20.3767 40.8334H29.2592C34.595 40.8334 35.545 38.1575 36.115 35.165L37.7142 26.8842C37.7593 26.6552 37.7532 26.419 37.6961 26.1926C37.639 25.9662 37.5324 25.7553 37.384 25.5751C37.2356 25.3949 37.049 25.2498 36.8378 25.1504C36.6266 25.051 36.3959 24.9996 36.1625 25ZM22.7992 35.2125C22.8072 35.362 22.7847 35.5116 22.733 35.6521C22.6813 35.7925 22.6015 35.921 22.4986 36.0297C22.3956 36.1383 22.2716 36.2248 22.1341 36.284C21.9965 36.3431 21.8484 36.3736 21.6987 36.3736C21.549 36.3736 21.4009 36.3431 21.2634 36.284C21.1259 36.2248 21.0019 36.1383 20.8989 36.0297C20.7959 35.921 20.7162 35.7925 20.6645 35.6521C20.6128 35.5116 20.5903 35.362 20.5983 35.2125V29.9875C20.5983 29.3859 21.0892 28.8792 21.7067 28.8792C21.9979 28.8834 22.2757 29.002 22.4802 29.2094C22.6846 29.4168 22.7992 29.6963 22.7992 29.9875V35.2125ZM29.5758 35.2125C29.5758 35.83 29.085 36.3209 28.4675 36.3209C27.8658 36.3209 27.3592 35.83 27.3592 35.2125V29.9875C27.3592 29.3859 27.8658 28.8792 28.4675 28.8792C29.085 28.8792 29.5758 29.3859 29.5758 29.9875V35.2125Z" fill="#E99F49"/>
</svg>
