<svg width="51" height="51" viewBox="0 0 51 51" fill="none" xmlns="http://www.w3.org/2000/svg">
<rect width="51" height="51" rx="15" fill="#F6D9B6"/>
<path d="M38.3394 15.0347L27.8519 8.96862C26.1392 7.97823 24.0205 7.97823 22.2903 8.96862L11.8204 15.0347C10.976 15.5251 10.2754 16.2294 9.7888 17.0769C9.30224 17.9244 9.04689 18.8852 9.04841 19.8629V31.9597C9.04841 33.9405 10.1078 35.7798 11.8204 36.7879L22.3079 42.854C24.0205 43.8444 26.1392 43.8444 27.8695 42.854L38.3571 36.7879C39.2014 36.2975 39.9021 35.5932 40.3886 34.7457C40.8752 33.8982 41.1306 32.9374 41.129 31.9597V19.8629C41.1214 18.885 40.8602 17.9259 40.3712 17.0795C39.8822 16.2332 39.1821 15.5286 38.3394 15.0347ZM25.0799 17.6699C27.3575 17.6699 29.1937 19.5092 29.1937 21.7906C29.1937 24.072 27.3575 25.9113 25.0799 25.9113C22.8023 25.9113 20.9661 24.072 20.9661 21.7906C20.9661 19.5269 22.8023 17.6699 25.0799 17.6699ZM29.8117 34.1527H20.3481C18.918 34.1527 18.0882 32.5611 18.8827 31.3761C20.0833 29.5899 22.4139 28.3873 25.0799 28.3873C27.7459 28.3873 30.0765 29.5899 31.2771 31.3761C32.0716 32.5434 31.2241 34.1527 29.8117 34.1527Z" fill="#E99F49"/>
</svg>
