<svg width="363" height="42" viewBox="0 0 363 42" fill="none" xmlns="http://www.w3.org/2000/svg">
<path d="M5.56 15.105C5.33 15.105 5.155 15.045 5.035 14.925C4.915 14.795 4.855 14.615 4.855 14.385V5.61H1.57C1.38 5.61 1.23 5.56 1.12 5.46C1.01 5.35 0.955 5.2 0.955 5.01C0.955 4.82 1.01 4.675 1.12 4.575C1.23 4.475 1.38 4.425 1.57 4.425H9.535C9.735 4.425 9.885 4.475 9.985 4.575C10.095 4.675 10.15 4.82 10.15 5.01C10.15 5.2 10.095 5.35 9.985 5.46C9.885 5.56 9.735 5.61 9.535 5.61H6.25V14.385C6.25 14.615 6.19 14.795 6.07 14.925C5.96 15.045 5.79 15.105 5.56 15.105ZM12.3741 15.135C11.8741 15.135 11.4191 15.035 11.0091 14.835C10.6091 14.635 10.2941 14.365 10.0641 14.025C9.8441 13.685 9.7341 13.305 9.7341 12.885C9.7341 12.345 9.8691 11.92 10.1391 11.61C10.4091 11.3 10.8641 11.08 11.5041 10.95C12.1441 10.81 13.0041 10.74 14.0841 10.74H14.7891V11.61H14.1141C13.3441 11.61 12.7341 11.645 12.2841 11.715C11.8441 11.785 11.5341 11.91 11.3541 12.09C11.1741 12.26 11.0841 12.5 11.0841 12.81C11.0841 13.2 11.2191 13.52 11.4891 13.77C11.7691 14.02 12.1491 14.145 12.6291 14.145C13.0091 14.145 13.3441 14.055 13.6341 13.875C13.9241 13.685 14.1541 13.435 14.3241 13.125C14.4941 12.805 14.5791 12.44 14.5791 12.03V10.305C14.5791 9.715 14.4591 9.29 14.2191 9.03C13.9791 8.76 13.5741 8.625 13.0041 8.625C12.6741 8.625 12.3341 8.67 11.9841 8.76C11.6341 8.85 11.2691 8.99 10.8891 9.18C10.7391 9.25 10.6091 9.275 10.4991 9.255C10.3891 9.225 10.2991 9.165 10.2291 9.075C10.1691 8.975 10.1341 8.87 10.1241 8.76C10.1241 8.64 10.1491 8.525 10.1991 8.415C10.2591 8.305 10.3591 8.225 10.4991 8.175C10.9391 7.955 11.3741 7.8 11.8041 7.71C12.2441 7.61 12.6541 7.56 13.0341 7.56C13.6841 7.56 14.2191 7.665 14.6391 7.875C15.0591 8.075 15.3741 8.39 15.5841 8.82C15.7941 9.24 15.8991 9.78 15.8991 10.44V14.4C15.8991 14.63 15.8441 14.805 15.7341 14.925C15.6241 15.045 15.4641 15.105 15.2541 15.105C15.0541 15.105 14.8941 15.045 14.7741 14.925C14.6641 14.805 14.6091 14.63 14.6091 14.4V13.335H14.7441C14.6641 13.705 14.5141 14.025 14.2941 14.295C14.0741 14.565 13.7991 14.775 13.4691 14.925C13.1491 15.065 12.7841 15.135 12.3741 15.135ZM20.6571 15.135C20.0671 15.135 19.5721 15.025 19.1721 14.805C18.7821 14.585 18.4921 14.26 18.3021 13.83C18.1121 13.4 18.0171 12.86 18.0171 12.21V8.28C18.0171 8.05 18.0721 7.88 18.1821 7.77C18.3021 7.65 18.4721 7.59 18.6921 7.59C18.9121 7.59 19.0821 7.65 19.2021 7.77C19.3221 7.88 19.3821 8.05 19.3821 8.28V12.21C19.3821 12.83 19.5071 13.29 19.7571 13.59C20.0071 13.88 20.4021 14.025 20.9421 14.025C21.5421 14.025 22.0271 13.825 22.3971 13.425C22.7771 13.025 22.9671 12.495 22.9671 11.835V8.28C22.9671 8.05 23.0221 7.88 23.1321 7.77C23.2521 7.65 23.4221 7.59 23.6421 7.59C23.8621 7.59 24.0321 7.65 24.1521 7.77C24.2721 7.88 24.3321 8.05 24.3321 8.28V14.4C24.3321 14.87 24.1121 15.105 23.6721 15.105C23.4521 15.105 23.2821 15.045 23.1621 14.925C23.0521 14.805 22.9971 14.63 22.9971 14.4V13.095L23.1921 13.35C22.9921 13.93 22.6671 14.375 22.2171 14.685C21.7771 14.985 21.2571 15.135 20.6571 15.135ZM29.5586 15.135C28.9686 15.135 28.4736 15.03 28.0736 14.82C27.6836 14.61 27.3886 14.305 27.1886 13.905C26.9986 13.505 26.9036 13.015 26.9036 12.435V8.745H25.9436C25.7636 8.745 25.6236 8.7 25.5236 8.61C25.4236 8.51 25.3736 8.38 25.3736 8.22C25.3736 8.05 25.4236 7.92 25.5236 7.83C25.6236 7.74 25.7636 7.695 25.9436 7.695H26.9036V6.06C26.9036 5.83 26.9636 5.66 27.0836 5.55C27.2036 5.43 27.3736 5.37 27.5936 5.37C27.8136 5.37 27.9786 5.43 28.0886 5.55C28.2086 5.66 28.2686 5.83 28.2686 6.06V7.695H30.0836C30.2736 7.695 30.4186 7.74 30.5186 7.83C30.6186 7.92 30.6686 8.05 30.6686 8.22C30.6686 8.38 30.6186 8.51 30.5186 8.61C30.4186 8.7 30.2736 8.745 30.0836 8.745H28.2686V12.315C28.2686 12.865 28.3836 13.28 28.6136 13.56C28.8436 13.84 29.2236 13.98 29.7536 13.98C29.9436 13.98 30.1036 13.965 30.2336 13.935C30.3636 13.895 30.4786 13.875 30.5786 13.875C30.6686 13.865 30.7436 13.895 30.8036 13.965C30.8736 14.035 30.9086 14.165 30.9086 14.355C30.9086 14.495 30.8836 14.625 30.8336 14.745C30.7936 14.855 30.7086 14.93 30.5786 14.97C30.4586 15.01 30.2986 15.045 30.0986 15.075C29.8986 15.115 29.7186 15.135 29.5586 15.135ZM34.2296 15.135C33.7296 15.135 33.2746 15.035 32.8646 14.835C32.4646 14.635 32.1496 14.365 31.9196 14.025C31.6996 13.685 31.5896 13.305 31.5896 12.885C31.5896 12.345 31.7246 11.92 31.9946 11.61C32.2646 11.3 32.7196 11.08 33.3596 10.95C33.9996 10.81 34.8596 10.74 35.9396 10.74H36.6446V11.61H35.9696C35.1996 11.61 34.5896 11.645 34.1396 11.715C33.6996 11.785 33.3896 11.91 33.2096 12.09C33.0296 12.26 32.9396 12.5 32.9396 12.81C32.9396 13.2 33.0746 13.52 33.3446 13.77C33.6246 14.02 34.0046 14.145 34.4846 14.145C34.8646 14.145 35.1996 14.055 35.4896 13.875C35.7796 13.685 36.0096 13.435 36.1796 13.125C36.3496 12.805 36.4346 12.44 36.4346 12.03V10.305C36.4346 9.715 36.3146 9.29 36.0746 9.03C35.8346 8.76 35.4296 8.625 34.8596 8.625C34.5296 8.625 34.1896 8.67 33.8396 8.76C33.4896 8.85 33.1246 8.99 32.7446 9.18C32.5946 9.25 32.4646 9.275 32.3546 9.255C32.2446 9.225 32.1546 9.165 32.0846 9.075C32.0246 8.975 31.9896 8.87 31.9796 8.76C31.9796 8.64 32.0046 8.525 32.0546 8.415C32.1146 8.305 32.2146 8.225 32.3546 8.175C32.7946 7.955 33.2296 7.8 33.6596 7.71C34.0996 7.61 34.5096 7.56 34.8896 7.56C35.5396 7.56 36.0746 7.665 36.4946 7.875C36.9146 8.075 37.2296 8.39 37.4396 8.82C37.6496 9.24 37.7546 9.78 37.7546 10.44V14.4C37.7546 14.63 37.6996 14.805 37.5896 14.925C37.4796 15.045 37.3196 15.105 37.1096 15.105C36.9096 15.105 36.7496 15.045 36.6296 14.925C36.5196 14.805 36.4646 14.63 36.4646 14.4V13.335H36.5996C36.5196 13.705 36.3696 14.025 36.1496 14.295C35.9296 14.565 35.6546 14.775 35.3246 14.925C35.0046 15.065 34.6396 15.135 34.2296 15.135ZM40.5776 15.105C40.3676 15.105 40.2026 15.045 40.0826 14.925C39.9626 14.805 39.9026 14.63 39.9026 14.4V8.28C39.9026 8.05 39.9626 7.88 40.0826 7.77C40.2026 7.65 40.3676 7.59 40.5776 7.59C40.7876 7.59 40.9476 7.65 41.0576 7.77C41.1776 7.88 41.2376 8.05 41.2376 8.28V9.51L41.0726 9.285C41.2826 8.715 41.6226 8.285 42.0926 7.995C42.5726 7.705 43.1176 7.56 43.7276 7.56C44.3176 7.56 44.8026 7.665 45.1826 7.875C45.5626 8.085 45.8476 8.405 46.0376 8.835C46.2276 9.265 46.3226 9.81 46.3226 10.47V14.4C46.3226 14.63 46.2626 14.805 46.1426 14.925C46.0326 15.045 45.8676 15.105 45.6476 15.105C45.4276 15.105 45.2576 15.045 45.1376 14.925C45.0176 14.805 44.9576 14.63 44.9576 14.4V10.545C44.9576 9.895 44.8326 9.42 44.5826 9.12C44.3326 8.82 43.9326 8.67 43.3826 8.67C42.7426 8.67 42.2276 8.87 41.8376 9.27C41.4576 9.66 41.2676 10.19 41.2676 10.86V14.4C41.2676 14.87 41.0376 15.105 40.5776 15.105ZM53.1027 15.105C52.8727 15.105 52.6977 15.045 52.5777 14.925C52.4577 14.805 52.3977 14.63 52.3977 14.4V8.28C52.3977 8.05 52.4577 7.88 52.5777 7.77C52.6977 7.65 52.8627 7.59 53.0727 7.59C53.2827 7.59 53.4427 7.65 53.5527 7.77C53.6727 7.88 53.7327 8.05 53.7327 8.28V9.435H53.5827C53.7427 8.835 54.0427 8.38 54.4827 8.07C54.9227 7.76 55.4777 7.585 56.1477 7.545C56.3077 7.535 56.4377 7.575 56.5377 7.665C56.6377 7.745 56.6927 7.885 56.7027 8.085C56.7127 8.275 56.6677 8.43 56.5677 8.55C56.4677 8.66 56.3127 8.725 56.1027 8.745L55.8327 8.76C55.1727 8.83 54.6627 9.045 54.3027 9.405C53.9527 9.765 53.7777 10.26 53.7777 10.89V14.4C53.7777 14.63 53.7177 14.805 53.5977 14.925C53.4877 15.045 53.3227 15.105 53.1027 15.105ZM61.1487 15.135C60.3587 15.135 59.6787 14.985 59.1087 14.685C58.5487 14.375 58.1137 13.94 57.8037 13.38C57.4937 12.81 57.3387 12.14 57.3387 11.37C57.3387 10.61 57.4887 9.945 57.7887 9.375C58.0987 8.805 58.5187 8.36 59.0487 8.04C59.5887 7.72 60.2037 7.56 60.8937 7.56C61.3837 7.56 61.8237 7.645 62.2137 7.815C62.6137 7.975 62.9537 8.21 63.2337 8.52C63.5137 8.83 63.7237 9.21 63.8637 9.66C64.0137 10.1 64.0887 10.6 64.0887 11.16C64.0887 11.32 64.0387 11.445 63.9387 11.535C63.8487 11.615 63.7137 11.655 63.5337 11.655H58.4037V10.785H63.1887L62.9337 10.995C62.9337 10.475 62.8537 10.035 62.6937 9.675C62.5437 9.305 62.3187 9.025 62.0187 8.835C61.7287 8.645 61.3637 8.55 60.9237 8.55C60.4437 8.55 60.0337 8.665 59.6937 8.895C59.3537 9.115 59.0937 9.43 58.9137 9.84C58.7337 10.24 58.6437 10.705 58.6437 11.235V11.325C58.6437 12.225 58.8587 12.905 59.2887 13.365C59.7187 13.825 60.3387 14.055 61.1487 14.055C61.4687 14.055 61.7937 14.015 62.1237 13.935C62.4637 13.855 62.7887 13.71 63.0987 13.5C63.2487 13.41 63.3837 13.37 63.5037 13.38C63.6337 13.38 63.7387 13.42 63.8187 13.5C63.8987 13.57 63.9487 13.66 63.9687 13.77C63.9887 13.87 63.9737 13.98 63.9237 14.1C63.8737 14.22 63.7787 14.325 63.6387 14.415C63.3087 14.645 62.9137 14.825 62.4537 14.955C62.0037 15.075 61.5687 15.135 61.1487 15.135ZM66.8818 15.105C66.6618 15.105 66.4918 15.045 66.3718 14.925C66.2518 14.805 66.1918 14.63 66.1918 14.4V8.745H65.2918C65.1118 8.745 64.9718 8.7 64.8718 8.61C64.7718 8.51 64.7218 8.38 64.7218 8.22C64.7218 8.05 64.7718 7.92 64.8718 7.83C64.9718 7.74 65.1118 7.695 65.2918 7.695H66.5668L66.1918 8.055V7.5C66.1918 6.53 66.4268 5.795 66.8968 5.295C67.3768 4.785 68.0768 4.49 68.9968 4.41L69.4618 4.38C69.6118 4.36 69.7318 4.385 69.8218 4.455C69.9118 4.515 69.9718 4.595 70.0018 4.695C70.0318 4.795 70.0318 4.9 70.0018 5.01C69.9818 5.11 69.9368 5.2 69.8668 5.28C69.7968 5.36 69.7068 5.405 69.5968 5.415L69.2668 5.43C68.6668 5.48 68.2318 5.66 67.9618 5.97C67.6918 6.27 67.5568 6.72 67.5568 7.32V7.92L67.3618 7.695H69.0868C69.2768 7.695 69.4218 7.74 69.5218 7.83C69.6218 7.92 69.6718 8.05 69.6718 8.22C69.6718 8.38 69.6218 8.51 69.5218 8.61C69.4218 8.7 69.2768 8.745 69.0868 8.745H67.5568V14.4C67.5568 14.87 67.3318 15.105 66.8818 15.105ZM74.0393 15.135C73.2493 15.135 72.5693 14.985 71.9993 14.685C71.4393 14.375 71.0043 13.94 70.6943 13.38C70.3843 12.81 70.2293 12.14 70.2293 11.37C70.2293 10.61 70.3793 9.945 70.6793 9.375C70.9893 8.805 71.4093 8.36 71.9393 8.04C72.4793 7.72 73.0943 7.56 73.7843 7.56C74.2743 7.56 74.7143 7.645 75.1043 7.815C75.5043 7.975 75.8443 8.21 76.1243 8.52C76.4043 8.83 76.6143 9.21 76.7543 9.66C76.9043 10.1 76.9793 10.6 76.9793 11.16C76.9793 11.32 76.9293 11.445 76.8293 11.535C76.7393 11.615 76.6043 11.655 76.4243 11.655H71.2943V10.785H76.0793L75.8243 10.995C75.8243 10.475 75.7443 10.035 75.5843 9.675C75.4343 9.305 75.2093 9.025 74.9093 8.835C74.6193 8.645 74.2543 8.55 73.8143 8.55C73.3343 8.55 72.9243 8.665 72.5843 8.895C72.2443 9.115 71.9843 9.43 71.8043 9.84C71.6243 10.24 71.5343 10.705 71.5343 11.235V11.325C71.5343 12.225 71.7493 12.905 72.1793 13.365C72.6093 13.825 73.2293 14.055 74.0393 14.055C74.3593 14.055 74.6843 14.015 75.0143 13.935C75.3543 13.855 75.6793 13.71 75.9893 13.5C76.1393 13.41 76.2743 13.37 76.3943 13.38C76.5243 13.38 76.6293 13.42 76.7093 13.5C76.7893 13.57 76.8393 13.66 76.8593 13.77C76.8793 13.87 76.8643 13.98 76.8143 14.1C76.7643 14.22 76.6693 14.325 76.5293 14.415C76.1993 14.645 75.8043 14.825 75.3443 14.955C74.8943 15.075 74.4593 15.135 74.0393 15.135ZM79.382 15.105C79.152 15.105 78.977 15.045 78.857 14.925C78.737 14.805 78.677 14.63 78.677 14.4V8.28C78.677 8.05 78.737 7.88 78.857 7.77C78.977 7.65 79.142 7.59 79.352 7.59C79.562 7.59 79.722 7.65 79.832 7.77C79.952 7.88 80.012 8.05 80.012 8.28V9.435H79.862C80.022 8.835 80.322 8.38 80.762 8.07C81.202 7.76 81.757 7.585 82.427 7.545C82.587 7.535 82.717 7.575 82.817 7.665C82.917 7.745 82.972 7.885 82.982 8.085C82.992 8.275 82.947 8.43 82.847 8.55C82.747 8.66 82.592 8.725 82.382 8.745L82.112 8.76C81.452 8.83 80.942 9.045 80.582 9.405C80.232 9.765 80.057 10.26 80.057 10.89V14.4C80.057 14.63 79.997 14.805 79.877 14.925C79.767 15.045 79.602 15.105 79.382 15.105ZM84.8605 15.105C84.6305 15.105 84.4555 15.045 84.3355 14.925C84.2155 14.805 84.1555 14.63 84.1555 14.4V8.28C84.1555 8.05 84.2155 7.88 84.3355 7.77C84.4555 7.65 84.6205 7.59 84.8305 7.59C85.0405 7.59 85.2005 7.65 85.3105 7.77C85.4305 7.88 85.4905 8.05 85.4905 8.28V9.435H85.3405C85.5005 8.835 85.8005 8.38 86.2405 8.07C86.6805 7.76 87.2355 7.585 87.9055 7.545C88.0655 7.535 88.1955 7.575 88.2955 7.665C88.3955 7.745 88.4505 7.885 88.4605 8.085C88.4705 8.275 88.4255 8.43 88.3255 8.55C88.2255 8.66 88.0705 8.725 87.8605 8.745L87.5905 8.76C86.9305 8.83 86.4205 9.045 86.0605 9.405C85.7105 9.765 85.5355 10.26 85.5355 10.89V14.4C85.5355 14.63 85.4755 14.805 85.3555 14.925C85.2455 15.045 85.0805 15.105 84.8605 15.105ZM91.8858 15.135C91.3858 15.135 90.9308 15.035 90.5208 14.835C90.1208 14.635 89.8058 14.365 89.5758 14.025C89.3558 13.685 89.2458 13.305 89.2458 12.885C89.2458 12.345 89.3808 11.92 89.6508 11.61C89.9208 11.3 90.3758 11.08 91.0158 10.95C91.6558 10.81 92.5158 10.74 93.5958 10.74H94.3008V11.61H93.6258C92.8558 11.61 92.2458 11.645 91.7958 11.715C91.3558 11.785 91.0458 11.91 90.8658 12.09C90.6858 12.26 90.5958 12.5 90.5958 12.81C90.5958 13.2 90.7308 13.52 91.0008 13.77C91.2808 14.02 91.6608 14.145 92.1408 14.145C92.5208 14.145 92.8558 14.055 93.1458 13.875C93.4358 13.685 93.6658 13.435 93.8358 13.125C94.0058 12.805 94.0908 12.44 94.0908 12.03V10.305C94.0908 9.715 93.9708 9.29 93.7308 9.03C93.4908 8.76 93.0858 8.625 92.5158 8.625C92.1858 8.625 91.8458 8.67 91.4958 8.76C91.1458 8.85 90.7808 8.99 90.4008 9.18C90.2508 9.25 90.1208 9.275 90.0108 9.255C89.9008 9.225 89.8108 9.165 89.7408 9.075C89.6808 8.975 89.6458 8.87 89.6358 8.76C89.6358 8.64 89.6608 8.525 89.7108 8.415C89.7708 8.305 89.8708 8.225 90.0108 8.175C90.4508 7.955 90.8858 7.8 91.3158 7.71C91.7558 7.61 92.1658 7.56 92.5458 7.56C93.1958 7.56 93.7308 7.665 94.1508 7.875C94.5708 8.075 94.8858 8.39 95.0958 8.82C95.3058 9.24 95.4108 9.78 95.4108 10.44V14.4C95.4108 14.63 95.3558 14.805 95.2458 14.925C95.1358 15.045 94.9758 15.105 94.7658 15.105C94.5658 15.105 94.4058 15.045 94.2858 14.925C94.1758 14.805 94.1208 14.63 94.1208 14.4V13.335H94.2558C94.1758 13.705 94.0258 14.025 93.8058 14.295C93.5858 14.565 93.3108 14.775 92.9808 14.925C92.6608 15.065 92.2958 15.135 91.8858 15.135ZM99.8539 15.135C99.1039 15.135 98.5339 14.915 98.1439 14.475C97.7539 14.025 97.5589 13.38 97.5589 12.54V5.01C97.5589 4.78 97.6189 4.61 97.7389 4.5C97.8589 4.38 98.0239 4.32 98.2339 4.32C98.4539 4.32 98.6239 4.38 98.7439 4.5C98.8639 4.61 98.9239 4.78 98.9239 5.01V12.435C98.9239 12.955 99.0289 13.345 99.2389 13.605C99.4589 13.855 99.7689 13.98 100.169 13.98C100.259 13.98 100.339 13.98 100.409 13.98C100.479 13.97 100.549 13.96 100.619 13.95C100.729 13.94 100.809 13.97 100.859 14.04C100.909 14.11 100.934 14.25 100.934 14.46C100.934 14.65 100.889 14.8 100.799 14.91C100.719 15.01 100.584 15.075 100.394 15.105C100.304 15.115 100.214 15.12 100.124 15.12C100.034 15.13 99.9439 15.135 99.8539 15.135ZM106.012 15.105C105.832 15.105 105.687 15.065 105.577 14.985C105.477 14.905 105.417 14.795 105.397 14.655C105.377 14.515 105.407 14.36 105.487 14.19L109.582 4.92C109.672 4.71 109.787 4.56 109.927 4.47C110.067 4.37 110.222 4.32 110.392 4.32C110.562 4.32 110.712 4.37 110.842 4.47C110.982 4.56 111.102 4.71 111.202 4.92L115.297 14.19C115.377 14.36 115.407 14.52 115.387 14.67C115.377 14.81 115.322 14.92 115.222 15C115.122 15.07 114.982 15.105 114.802 15.105C114.602 15.105 114.442 15.055 114.322 14.955C114.202 14.845 114.097 14.69 114.007 14.49L112.942 12L113.587 12.36H107.167L107.812 12L106.747 14.49C106.657 14.71 106.557 14.87 106.447 14.97C106.337 15.06 106.192 15.105 106.012 15.105ZM110.362 6L108.022 11.535L107.662 11.22H113.092L112.747 11.535L110.392 6H110.362ZM117.658 15.105C117.448 15.105 117.283 15.045 117.163 14.925C117.043 14.805 116.983 14.63 116.983 14.4V8.28C116.983 8.05 117.043 7.88 117.163 7.77C117.283 7.65 117.448 7.59 117.658 7.59C117.868 7.59 118.028 7.65 118.138 7.77C118.258 7.88 118.318 8.05 118.318 8.28V9.51L118.153 9.285C118.363 8.715 118.703 8.285 119.173 7.995C119.653 7.705 120.198 7.56 120.808 7.56C121.398 7.56 121.883 7.665 122.263 7.875C122.643 8.085 122.928 8.405 123.118 8.835C123.308 9.265 123.403 9.81 123.403 10.47V14.4C123.403 14.63 123.343 14.805 123.223 14.925C123.113 15.045 122.948 15.105 122.728 15.105C122.508 15.105 122.338 15.045 122.218 14.925C122.098 14.805 122.038 14.63 122.038 14.4V10.545C122.038 9.895 121.913 9.42 121.663 9.12C121.413 8.82 121.013 8.67 120.463 8.67C119.823 8.67 119.308 8.87 118.918 9.27C118.538 9.66 118.348 10.19 118.348 10.86V14.4C118.348 14.87 118.118 15.105 117.658 15.105ZM128.357 15.135C127.717 15.135 127.152 14.985 126.662 14.685C126.182 14.375 125.807 13.935 125.537 13.365C125.267 12.785 125.132 12.11 125.132 11.34C125.132 10.56 125.262 9.89 125.522 9.33C125.792 8.76 126.167 8.325 126.647 8.025C127.137 7.715 127.707 7.56 128.357 7.56C129.007 7.56 129.567 7.725 130.037 8.055C130.507 8.375 130.822 8.805 130.982 9.345H130.817V5.01C130.817 4.78 130.872 4.61 130.982 4.5C131.102 4.38 131.272 4.32 131.492 4.32C131.712 4.32 131.882 4.38 132.002 4.5C132.122 4.61 132.182 4.78 132.182 5.01V14.4C132.182 14.63 132.122 14.805 132.002 14.925C131.882 15.045 131.712 15.105 131.492 15.105C131.282 15.105 131.117 15.045 130.997 14.925C130.877 14.805 130.817 14.63 130.817 14.4V13.035L130.982 13.305C130.832 13.865 130.517 14.31 130.037 14.64C129.567 14.97 129.007 15.135 128.357 15.135ZM128.672 14.055C129.112 14.055 129.492 13.95 129.812 13.74C130.142 13.53 130.392 13.225 130.562 12.825C130.742 12.425 130.832 11.93 130.832 11.34C130.832 10.46 130.637 9.79 130.247 9.33C129.857 8.87 129.332 8.64 128.672 8.64C128.242 8.64 127.862 8.745 127.532 8.955C127.212 9.155 126.962 9.455 126.782 9.855C126.602 10.255 126.512 10.75 126.512 11.34C126.512 12.22 126.707 12.895 127.097 13.365C127.497 13.825 128.022 14.055 128.672 14.055ZM136.695 15.135C136.195 15.135 135.74 15.035 135.33 14.835C134.93 14.635 134.615 14.365 134.385 14.025C134.165 13.685 134.055 13.305 134.055 12.885C134.055 12.345 134.19 11.92 134.46 11.61C134.73 11.3 135.185 11.08 135.825 10.95C136.465 10.81 137.325 10.74 138.405 10.74H139.11V11.61H138.435C137.665 11.61 137.055 11.645 136.605 11.715C136.165 11.785 135.855 11.91 135.675 12.09C135.495 12.26 135.405 12.5 135.405 12.81C135.405 13.2 135.54 13.52 135.81 13.77C136.09 14.02 136.47 14.145 136.95 14.145C137.33 14.145 137.665 14.055 137.955 13.875C138.245 13.685 138.475 13.435 138.645 13.125C138.815 12.805 138.9 12.44 138.9 12.03V10.305C138.9 9.715 138.78 9.29 138.54 9.03C138.3 8.76 137.895 8.625 137.325 8.625C136.995 8.625 136.655 8.67 136.305 8.76C135.955 8.85 135.59 8.99 135.21 9.18C135.06 9.25 134.93 9.275 134.82 9.255C134.71 9.225 134.62 9.165 134.55 9.075C134.49 8.975 134.455 8.87 134.445 8.76C134.445 8.64 134.47 8.525 134.52 8.415C134.58 8.305 134.68 8.225 134.82 8.175C135.26 7.955 135.695 7.8 136.125 7.71C136.565 7.61 136.975 7.56 137.355 7.56C138.005 7.56 138.54 7.665 138.96 7.875C139.38 8.075 139.695 8.39 139.905 8.82C140.115 9.24 140.22 9.78 140.22 10.44V14.4C140.22 14.63 140.165 14.805 140.055 14.925C139.945 15.045 139.785 15.105 139.575 15.105C139.375 15.105 139.215 15.045 139.095 14.925C138.985 14.805 138.93 14.63 138.93 14.4V13.335H139.065C138.985 13.705 138.835 14.025 138.615 14.295C138.395 14.565 138.12 14.775 137.79 14.925C137.47 15.065 137.105 15.135 136.695 15.135ZM143.028 15.06C142.768 15.06 142.553 14.975 142.383 14.805C142.213 14.635 142.128 14.42 142.128 14.16C142.128 13.9 142.213 13.69 142.383 13.53C142.553 13.37 142.768 13.29 143.028 13.29C143.308 13.29 143.523 13.37 143.673 13.53C143.833 13.69 143.913 13.9 143.913 14.16C143.913 14.42 143.833 14.635 143.673 14.805C143.523 14.975 143.308 15.06 143.028 15.06ZM143.028 9.405C142.768 9.405 142.553 9.325 142.383 9.165C142.213 8.995 142.128 8.78 142.128 8.52C142.128 8.26 142.213 8.05 142.383 7.89C142.553 7.72 142.768 7.635 143.028 7.635C143.308 7.635 143.523 7.72 143.673 7.89C143.833 8.05 143.913 8.26 143.913 8.52C143.913 8.78 143.833 8.995 143.673 9.165C143.523 9.325 143.308 9.405 143.028 9.405Z" fill="#23690A"/>
<path d="M4.69 37.12C4.02 37.12 3.455 37.07 2.995 36.97C2.535 36.87 2.13 36.71 1.78 36.49C1.64 36.42 1.53 36.3 1.45 36.13C1.37 35.96 1.33 35.77 1.33 35.56C1.33 35.29 1.4 35.07 1.54 34.9C1.69 34.72 1.875 34.63 2.095 34.63C2.245 34.63 2.385 34.65 2.515 34.69C2.645 34.72 2.805 34.775 2.995 34.855C3.315 34.965 3.595 35.05 3.835 35.11C4.085 35.17 4.4 35.2 4.78 35.2C5.05 35.2 5.26 35.165 5.41 35.095C5.57 35.015 5.65 34.905 5.65 34.765C5.65 34.655 5.61 34.57 5.53 34.51C5.46 34.45 5.32 34.395 5.11 34.345C4.9 34.285 4.545 34.205 4.045 34.105C3.155 33.935 2.51 33.68 2.11 33.34C1.72 32.99 1.525 32.5 1.525 31.87C1.525 31.41 1.665 30.995 1.945 30.625C2.235 30.255 2.63 29.965 3.13 29.755C3.63 29.545 4.19 29.44 4.81 29.44C5.26 29.44 5.695 29.495 6.115 29.605C6.545 29.715 6.925 29.87 7.255 30.07C7.565 30.25 7.72 30.54 7.72 30.94C7.72 31.22 7.645 31.455 7.495 31.645C7.345 31.835 7.16 31.93 6.94 31.93C6.68 31.93 6.37 31.845 6.01 31.675C5.77 31.565 5.555 31.485 5.365 31.435C5.185 31.375 4.97 31.345 4.72 31.345C4.47 31.345 4.275 31.385 4.135 31.465C3.995 31.535 3.925 31.64 3.925 31.78C3.925 31.94 4.02 32.065 4.21 32.155C4.41 32.245 4.8 32.345 5.38 32.455C6.35 32.625 7.035 32.885 7.435 33.235C7.835 33.575 8.035 34.07 8.035 34.72C8.035 35.45 7.73 36.035 7.12 36.475C6.52 36.905 5.71 37.12 4.69 37.12ZM13.4253 35.185C14.0953 35.225 14.4303 35.525 14.4303 36.085C14.4303 36.435 14.2953 36.695 14.0253 36.865C13.7553 37.035 13.3703 37.105 12.8703 37.075L12.4503 37.045C11.5503 36.975 10.8653 36.705 10.3953 36.235C9.93527 35.755 9.70527 35.09 9.70527 34.24V31.585H9.27027C8.47027 31.585 8.07027 31.255 8.07027 30.595C8.07027 29.945 8.47027 29.62 9.27027 29.62H9.70527V28.645C9.70527 28.265 9.82527 27.965 10.0653 27.745C10.3053 27.515 10.6303 27.4 11.0403 27.4C11.4503 27.4 11.7753 27.515 12.0153 27.745C12.2553 27.965 12.3753 28.265 12.3753 28.645V29.62H13.2003C14.0003 29.62 14.4003 29.945 14.4003 30.595C14.4003 31.255 14.0003 31.585 13.2003 31.585H12.3753V34.465C12.3753 34.655 12.4303 34.815 12.5403 34.945C12.6603 35.075 12.8103 35.145 12.9903 35.155L13.4253 35.185ZM18.8594 37.12C18.0494 37.12 17.3344 36.965 16.7144 36.655C16.1044 36.335 15.6294 35.885 15.2894 35.305C14.9594 34.725 14.7944 34.045 14.7944 33.265C14.7944 32.485 14.9594 31.81 15.2894 31.24C15.6294 30.66 16.1044 30.215 16.7144 29.905C17.3244 29.595 18.0394 29.44 18.8594 29.44C19.6794 29.44 20.3944 29.595 21.0044 29.905C21.6144 30.215 22.0844 30.66 22.4144 31.24C22.7544 31.81 22.9244 32.485 22.9244 33.265C22.9244 34.045 22.7544 34.725 22.4144 35.305C22.0844 35.885 21.6144 36.335 21.0044 36.655C20.3944 36.965 19.6794 37.12 18.8594 37.12ZM18.8594 35.125C19.8094 35.125 20.2844 34.505 20.2844 33.265C20.2844 32.025 19.8094 31.405 18.8594 31.405C17.9094 31.405 17.4344 32.025 17.4344 33.265C17.4344 34.505 17.9094 35.125 18.8594 35.125ZM28.8135 29.47C29.1535 29.44 29.4235 29.52 29.6235 29.71C29.8235 29.89 29.9235 30.16 29.9235 30.52C29.9235 30.92 29.8285 31.21 29.6385 31.39C29.4585 31.57 29.1285 31.685 28.6485 31.735L28.1985 31.78C27.6985 31.84 27.3385 32 27.1185 32.26C26.9085 32.51 26.8035 32.855 26.8035 33.295V35.86C26.8035 36.27 26.6735 36.58 26.4135 36.79C26.1635 36.99 25.8485 37.09 25.4685 37.09C25.0885 37.09 24.7685 36.99 24.5085 36.79C24.2585 36.58 24.1335 36.27 24.1335 35.86V30.67C24.1335 30.29 24.2585 29.995 24.5085 29.785C24.7685 29.575 25.0785 29.47 25.4385 29.47C25.8085 29.47 26.1035 29.57 26.3235 29.77C26.5535 29.97 26.6685 30.25 26.6685 30.61V30.895C26.8285 30.455 27.0885 30.115 27.4485 29.875C27.8185 29.635 28.2035 29.505 28.6035 29.485L28.8135 29.47ZM36.2712 34.63C36.5012 34.63 36.6862 34.72 36.8262 34.9C36.9762 35.08 37.0512 35.315 37.0512 35.605C37.0512 36.005 36.8562 36.31 36.4662 36.52C36.1262 36.69 35.7212 36.835 35.2512 36.955C34.7912 37.065 34.3662 37.12 33.9762 37.12C33.1562 37.12 32.4412 36.965 31.8312 36.655C31.2212 36.345 30.7512 35.9 30.4212 35.32C30.0912 34.74 29.9262 34.06 29.9262 33.28C29.9262 32.54 30.0812 31.88 30.3912 31.3C30.7112 30.71 31.1512 30.255 31.7112 29.935C32.2812 29.605 32.9212 29.44 33.6312 29.44C34.3212 29.44 34.9262 29.59 35.4462 29.89C35.9662 30.19 36.3662 30.615 36.6462 31.165C36.9362 31.715 37.0812 32.36 37.0812 33.1C37.0812 33.33 37.0262 33.51 36.9162 33.64C36.8162 33.76 36.6662 33.82 36.4662 33.82H32.5062C32.5762 34.3 32.7312 34.645 32.9712 34.855C33.2112 35.065 33.5662 35.17 34.0362 35.17C34.2862 35.17 34.5162 35.145 34.7262 35.095C34.9362 35.035 35.1712 34.955 35.4312 34.855C35.5812 34.795 35.7262 34.745 35.8662 34.705C36.0162 34.655 36.1512 34.63 36.2712 34.63ZM33.7062 31.24C33.3562 31.24 33.0762 31.355 32.8662 31.585C32.6562 31.805 32.5312 32.13 32.4912 32.56H34.8462C34.7862 31.68 34.4062 31.24 33.7062 31.24ZM39.5586 37.09C39.1386 37.09 38.7886 36.95 38.5086 36.67C38.2386 36.39 38.1036 36.045 38.1036 35.635C38.1036 35.225 38.2386 34.88 38.5086 34.6C38.7886 34.32 39.1386 34.18 39.5586 34.18C39.9686 34.18 40.3086 34.32 40.5786 34.6C40.8586 34.88 40.9986 35.225 40.9986 35.635C40.9986 36.045 40.8586 36.39 40.5786 36.67C40.3086 36.95 39.9686 37.09 39.5586 37.09ZM43.7205 37.09C43.3405 37.09 43.0205 36.99 42.7605 36.79C42.5105 36.58 42.3855 36.27 42.3855 35.86V30.7C42.3855 30.29 42.5105 29.985 42.7605 29.785C43.0205 29.575 43.3405 29.47 43.7205 29.47C44.1005 29.47 44.4155 29.575 44.6655 29.785C44.9255 29.985 45.0555 30.29 45.0555 30.7V35.86C45.0555 36.27 44.9255 36.58 44.6655 36.79C44.4155 36.99 44.1005 37.09 43.7205 37.09ZM43.7205 28.42C43.2705 28.42 42.9105 28.305 42.6405 28.075C42.3805 27.835 42.2505 27.52 42.2505 27.13C42.2505 26.74 42.3805 26.43 42.6405 26.2C42.9105 25.97 43.2705 25.855 43.7205 25.855C44.1605 25.855 44.5155 25.97 44.7855 26.2C45.0555 26.43 45.1905 26.74 45.1905 27.13C45.1905 27.52 45.0555 27.835 44.7855 28.075C44.5255 28.305 44.1705 28.42 43.7205 28.42ZM50.9692 35.185C51.6392 35.225 51.9742 35.525 51.9742 36.085C51.9742 36.435 51.8392 36.695 51.5692 36.865C51.2992 37.035 50.9142 37.105 50.4142 37.075L49.9942 37.045C49.0942 36.975 48.4092 36.705 47.9392 36.235C47.4792 35.755 47.2492 35.09 47.2492 34.24V31.585H46.8142C46.0142 31.585 45.6142 31.255 45.6142 30.595C45.6142 29.945 46.0142 29.62 46.8142 29.62H47.2492V28.645C47.2492 28.265 47.3692 27.965 47.6092 27.745C47.8492 27.515 48.1742 27.4 48.5842 27.4C48.9942 27.4 49.3192 27.515 49.5592 27.745C49.7992 27.965 49.9192 28.265 49.9192 28.645V29.62H50.7442C51.5442 29.62 51.9442 29.945 51.9442 30.595C51.9442 31.255 51.5442 31.585 50.7442 31.585H49.9192V34.465C49.9192 34.655 49.9742 34.815 50.0842 34.945C50.2042 35.075 50.3542 35.145 50.5342 35.155L50.9692 35.185ZM55.5933 37.12C54.9233 37.12 54.3583 37.07 53.8983 36.97C53.4383 36.87 53.0333 36.71 52.6833 36.49C52.5433 36.42 52.4333 36.3 52.3533 36.13C52.2733 35.96 52.2333 35.77 52.2333 35.56C52.2333 35.29 52.3033 35.07 52.4433 34.9C52.5933 34.72 52.7783 34.63 52.9983 34.63C53.1483 34.63 53.2883 34.65 53.4183 34.69C53.5483 34.72 53.7083 34.775 53.8983 34.855C54.2183 34.965 54.4983 35.05 54.7383 35.11C54.9883 35.17 55.3033 35.2 55.6833 35.2C55.9533 35.2 56.1633 35.165 56.3133 35.095C56.4733 35.015 56.5533 34.905 56.5533 34.765C56.5533 34.655 56.5133 34.57 56.4333 34.51C56.3633 34.45 56.2233 34.395 56.0133 34.345C55.8033 34.285 55.4483 34.205 54.9483 34.105C54.0583 33.935 53.4133 33.68 53.0133 33.34C52.6233 32.99 52.4283 32.5 52.4283 31.87C52.4283 31.41 52.5683 30.995 52.8483 30.625C53.1383 30.255 53.5333 29.965 54.0333 29.755C54.5333 29.545 55.0933 29.44 55.7133 29.44C56.1633 29.44 56.5983 29.495 57.0183 29.605C57.4483 29.715 57.8283 29.87 58.1583 30.07C58.4683 30.25 58.6233 30.54 58.6233 30.94C58.6233 31.22 58.5483 31.455 58.3983 31.645C58.2483 31.835 58.0633 31.93 57.8433 31.93C57.5833 31.93 57.2733 31.845 56.9133 31.675C56.6733 31.565 56.4583 31.485 56.2683 31.435C56.0883 31.375 55.8733 31.345 55.6233 31.345C55.3733 31.345 55.1783 31.385 55.0383 31.465C54.8983 31.535 54.8283 31.64 54.8283 31.78C54.8283 31.94 54.9233 32.065 55.1133 32.155C55.3133 32.245 55.7033 32.345 56.2833 32.455C57.2533 32.625 57.9383 32.885 58.3383 33.235C58.7383 33.575 58.9383 34.07 58.9383 34.72C58.9383 35.45 58.6333 36.035 58.0233 36.475C57.4233 36.905 56.6133 37.12 55.5933 37.12ZM64.9268 29.44C65.5668 29.44 66.1318 29.595 66.6218 29.905C67.1118 30.215 67.4918 30.66 67.7618 31.24C68.0418 31.81 68.1818 32.475 68.1818 33.235C68.1818 33.995 68.0418 34.67 67.7618 35.26C67.4918 35.85 67.1068 36.31 66.6068 36.64C66.1168 36.96 65.5568 37.12 64.9268 37.12C64.4368 37.12 63.9868 37.02 63.5768 36.82C63.1768 36.62 62.8718 36.345 62.6618 35.995C62.6318 36.335 62.4968 36.605 62.2568 36.805C62.0268 36.995 61.7218 37.09 61.3418 37.09C60.9418 37.09 60.6218 36.98 60.3818 36.76C60.1518 36.53 60.0368 36.23 60.0368 35.86V27.55C60.0368 27.2 60.1618 26.915 60.4118 26.695C60.6618 26.465 60.9918 26.35 61.4018 26.35C61.7918 26.35 62.1068 26.455 62.3468 26.665C62.5868 26.875 62.7068 27.155 62.7068 27.505V30.49C62.9268 30.17 63.2318 29.915 63.6218 29.725C64.0218 29.535 64.4568 29.44 64.9268 29.44ZM64.1018 35.125C64.5618 35.125 64.9168 34.965 65.1668 34.645C65.4168 34.315 65.5418 33.845 65.5418 33.235C65.5418 32.655 65.4168 32.21 65.1668 31.9C64.9268 31.59 64.5768 31.435 64.1168 31.435C63.6468 31.435 63.2868 31.595 63.0368 31.915C62.7868 32.225 62.6618 32.675 62.6618 33.265C62.6618 33.865 62.7868 34.325 63.0368 34.645C63.2868 34.965 63.6418 35.125 64.1018 35.125ZM75.5168 29.47C75.9268 29.47 76.2518 29.58 76.4918 29.8C76.7318 30.02 76.8518 30.32 76.8518 30.7V35.89C76.8518 36.24 76.7268 36.53 76.4768 36.76C76.2268 36.98 75.9018 37.09 75.5018 37.09C75.1418 37.09 74.8468 36.995 74.6168 36.805C74.3868 36.605 74.2668 36.34 74.2568 36.01C74.0268 36.37 73.7318 36.645 73.3718 36.835C73.0218 37.025 72.6168 37.12 72.1568 37.12C71.2068 37.12 70.5018 36.86 70.0418 36.34C69.5818 35.81 69.3518 35.01 69.3518 33.94V30.7C69.3518 30.32 69.4718 30.02 69.7118 29.8C69.9518 29.58 70.2768 29.47 70.6868 29.47C71.0968 29.47 71.4218 29.58 71.6618 29.8C71.9018 30.02 72.0218 30.32 72.0218 30.7V34C72.0218 34.72 72.3318 35.08 72.9518 35.08C73.3118 35.08 73.6068 34.95 73.8368 34.69C74.0668 34.43 74.1818 34.09 74.1818 33.67V30.7C74.1818 30.32 74.3018 30.02 74.5418 29.8C74.7818 29.58 75.1068 29.47 75.5168 29.47ZM81.841 29.44C82.981 29.44 83.821 29.715 84.361 30.265C84.911 30.805 85.186 31.63 85.186 32.74V35.875C85.186 36.255 85.071 36.555 84.841 36.775C84.621 36.985 84.311 37.09 83.911 37.09C83.561 37.09 83.271 36.99 83.041 36.79C82.821 36.59 82.701 36.32 82.681 35.98C82.541 36.34 82.306 36.62 81.976 36.82C81.646 37.02 81.251 37.12 80.791 37.12C80.281 37.12 79.821 37.02 79.411 36.82C79.001 36.61 78.676 36.325 78.436 35.965C78.206 35.595 78.091 35.18 78.091 34.72C78.091 34.19 78.226 33.77 78.496 33.46C78.776 33.14 79.216 32.91 79.816 32.77C80.416 32.63 81.226 32.56 82.246 32.56H82.651V32.38C82.651 32.03 82.571 31.78 82.411 31.63C82.251 31.47 81.981 31.39 81.601 31.39C81.191 31.39 80.591 31.53 79.801 31.81C79.571 31.89 79.376 31.93 79.216 31.93C78.966 31.93 78.766 31.84 78.616 31.66C78.466 31.48 78.391 31.245 78.391 30.955C78.391 30.735 78.436 30.555 78.526 30.415C78.616 30.275 78.761 30.15 78.961 30.04C79.311 29.86 79.751 29.715 80.281 29.605C80.811 29.495 81.331 29.44 81.841 29.44ZM81.421 35.335C81.781 35.335 82.076 35.21 82.306 34.96C82.536 34.7 82.651 34.37 82.651 33.97V33.79H82.411C81.771 33.79 81.316 33.85 81.046 33.97C80.776 34.08 80.641 34.27 80.641 34.54C80.641 34.77 80.711 34.96 80.851 35.11C81.001 35.26 81.191 35.335 81.421 35.335ZM91.7073 29.44C92.5673 29.44 93.2073 29.705 93.6273 30.235C94.0473 30.755 94.2573 31.55 94.2573 32.62V35.86C94.2573 36.24 94.1373 36.54 93.8973 36.76C93.6573 36.98 93.3323 37.09 92.9223 37.09C92.5123 37.09 92.1873 36.98 91.9473 36.76C91.7073 36.54 91.5873 36.24 91.5873 35.86V32.56C91.5873 31.84 91.2773 31.48 90.6573 31.48C90.2573 31.48 89.9373 31.61 89.6973 31.87C89.4673 32.12 89.3523 32.46 89.3523 32.89V35.86C89.3523 36.24 89.2323 36.54 88.9923 36.76C88.7523 36.98 88.4273 37.09 88.0173 37.09C87.6073 37.09 87.2823 36.98 87.0423 36.76C86.8023 36.54 86.6823 36.24 86.6823 35.86V27.55C86.6823 27.2 86.8073 26.915 87.0573 26.695C87.3073 26.465 87.6373 26.35 88.0473 26.35C88.4373 26.35 88.7523 26.455 88.9923 26.665C89.2323 26.875 89.3523 27.155 89.3523 27.505V30.505C89.6223 30.155 89.9573 29.89 90.3573 29.71C90.7573 29.53 91.2073 29.44 91.7073 29.44ZM97.0244 37.09C96.6044 37.09 96.2544 36.95 95.9744 36.67C95.7044 36.39 95.5694 36.045 95.5694 35.635C95.5694 35.225 95.7044 34.88 95.9744 34.6C96.2544 34.32 96.6044 34.18 97.0244 34.18C97.4344 34.18 97.7744 34.32 98.0444 34.6C98.3244 34.88 98.4644 35.225 98.4644 35.635C98.4644 36.045 98.3244 36.39 98.0444 36.67C97.7744 36.95 97.4344 37.09 97.0244 37.09ZM103.289 37.12C102.089 37.12 101.139 36.78 100.439 36.1C99.7391 35.42 99.3891 34.495 99.3891 33.325C99.3891 32.555 99.5591 31.875 99.8991 31.285C100.239 30.695 100.714 30.24 101.324 29.92C101.944 29.6 102.649 29.44 103.439 29.44C103.859 29.44 104.279 29.495 104.699 29.605C105.119 29.715 105.489 29.87 105.809 30.07C106.119 30.26 106.274 30.55 106.274 30.94C106.274 31.25 106.199 31.505 106.049 31.705C105.909 31.895 105.724 31.99 105.494 31.99C105.344 31.99 105.199 31.97 105.059 31.93C104.919 31.88 104.764 31.81 104.594 31.72C104.394 31.63 104.224 31.565 104.084 31.525C103.944 31.475 103.789 31.45 103.619 31.45C102.629 31.45 102.134 32.055 102.134 33.265C102.134 33.865 102.259 34.325 102.509 34.645C102.769 34.955 103.139 35.11 103.619 35.11C103.789 35.11 103.944 35.09 104.084 35.05C104.234 35 104.399 34.93 104.579 34.84C104.779 34.75 104.939 34.685 105.059 34.645C105.189 34.595 105.329 34.57 105.479 34.57C105.709 34.57 105.894 34.67 106.034 34.87C106.184 35.06 106.259 35.31 106.259 35.62C106.259 35.81 106.219 35.985 106.139 36.145C106.059 36.295 105.949 36.41 105.809 36.49C105.119 36.91 104.279 37.12 103.289 37.12ZM110.954 37.12C110.144 37.12 109.429 36.965 108.809 36.655C108.199 36.335 107.724 35.885 107.384 35.305C107.054 34.725 106.889 34.045 106.889 33.265C106.889 32.485 107.054 31.81 107.384 31.24C107.724 30.66 108.199 30.215 108.809 29.905C109.419 29.595 110.134 29.44 110.954 29.44C111.774 29.44 112.489 29.595 113.099 29.905C113.709 30.215 114.179 30.66 114.509 31.24C114.849 31.81 115.019 32.485 115.019 33.265C115.019 34.045 114.849 34.725 114.509 35.305C114.179 35.885 113.709 36.335 113.099 36.655C112.489 36.965 111.774 37.12 110.954 37.12ZM110.954 35.125C111.904 35.125 112.379 34.505 112.379 33.265C112.379 32.025 111.904 31.405 110.954 31.405C110.004 31.405 109.529 32.025 109.529 33.265C109.529 34.505 110.004 35.125 110.954 35.125ZM125.648 29.44C126.458 29.44 127.083 29.685 127.523 30.175C127.963 30.655 128.183 31.47 128.183 32.62V35.86C128.183 36.27 128.053 36.58 127.793 36.79C127.543 36.99 127.228 37.09 126.848 37.09C126.468 37.09 126.148 36.99 125.888 36.79C125.638 36.58 125.513 36.27 125.513 35.86V32.56C125.513 32.16 125.443 31.88 125.303 31.72C125.163 31.56 124.958 31.48 124.688 31.48C124.338 31.48 124.058 31.605 123.848 31.855C123.638 32.105 123.533 32.45 123.533 32.89V35.86C123.533 36.27 123.408 36.58 123.158 36.79C122.908 36.99 122.588 37.09 122.198 37.09C121.818 37.09 121.498 36.99 121.238 36.79C120.988 36.58 120.863 36.27 120.863 35.86V32.56C120.863 32.16 120.793 31.88 120.653 31.72C120.513 31.56 120.308 31.48 120.038 31.48C119.688 31.48 119.408 31.605 119.198 31.855C118.998 32.105 118.898 32.45 118.898 32.89V35.86C118.898 36.27 118.768 36.58 118.508 36.79C118.258 36.99 117.943 37.09 117.563 37.09C117.183 37.09 116.863 36.99 116.603 36.79C116.353 36.58 116.228 36.27 116.228 35.86V30.67C116.228 30.28 116.358 29.985 116.618 29.785C116.888 29.575 117.208 29.47 117.578 29.47C117.928 29.47 118.218 29.565 118.448 29.755C118.688 29.935 118.813 30.2 118.823 30.55C119.313 29.81 120.063 29.44 121.073 29.44C122.143 29.44 122.858 29.875 123.218 30.745C123.468 30.345 123.803 30.03 124.223 29.8C124.643 29.56 125.118 29.44 125.648 29.44ZM130.8 37.48C130.72 37.72 130.59 37.9 130.41 38.02C130.24 38.14 130.045 38.2 129.825 38.2C129.545 38.2 129.3 38.11 129.09 37.93C128.88 37.75 128.775 37.52 128.775 37.24C128.775 37.12 128.795 37.005 128.835 36.895L132.24 26.2C132.32 25.96 132.445 25.78 132.615 25.66C132.795 25.54 132.99 25.48 133.2 25.48C133.48 25.48 133.725 25.57 133.935 25.75C134.155 25.93 134.265 26.165 134.265 26.455C134.265 26.515 134.245 26.625 134.205 26.785L130.8 37.48ZM136.269 37.09C135.889 37.09 135.569 36.99 135.309 36.79C135.059 36.58 134.934 36.27 134.934 35.86V30.7C134.934 30.29 135.059 29.985 135.309 29.785C135.569 29.575 135.889 29.47 136.269 29.47C136.649 29.47 136.964 29.575 137.214 29.785C137.474 29.985 137.604 30.29 137.604 30.7V35.86C137.604 36.27 137.474 36.58 137.214 36.79C136.964 36.99 136.649 37.09 136.269 37.09ZM136.269 28.42C135.819 28.42 135.459 28.305 135.189 28.075C134.929 27.835 134.799 27.52 134.799 27.13C134.799 26.74 134.929 26.43 135.189 26.2C135.459 25.97 135.819 25.855 136.269 25.855C136.709 25.855 137.064 25.97 137.334 26.2C137.604 26.43 137.739 26.74 137.739 27.13C137.739 27.52 137.604 27.835 137.334 28.075C137.074 28.305 136.719 28.42 136.269 28.42ZM144.118 29.44C144.998 29.44 145.653 29.705 146.083 30.235C146.513 30.755 146.728 31.55 146.728 32.62V35.86C146.728 36.24 146.608 36.54 146.368 36.76C146.128 36.98 145.803 37.09 145.393 37.09C144.983 37.09 144.658 36.98 144.418 36.76C144.178 36.54 144.058 36.24 144.058 35.86V32.74C144.058 32.3 143.978 31.98 143.818 31.78C143.668 31.58 143.438 31.48 143.128 31.48C142.728 31.48 142.408 31.61 142.168 31.87C141.938 32.12 141.823 32.46 141.823 32.89V35.86C141.823 36.24 141.703 36.54 141.463 36.76C141.223 36.98 140.898 37.09 140.488 37.09C140.078 37.09 139.753 36.98 139.513 36.76C139.273 36.54 139.153 36.24 139.153 35.86V30.67C139.153 30.32 139.278 30.035 139.528 29.815C139.778 29.585 140.103 29.47 140.503 29.47C140.883 29.47 141.183 29.575 141.403 29.785C141.633 29.995 141.748 30.27 141.748 30.61C142.008 30.23 142.343 29.94 142.753 29.74C143.163 29.54 143.618 29.44 144.118 29.44ZM153.17 30.22C153.28 29.97 153.43 29.785 153.62 29.665C153.82 29.545 154.035 29.485 154.265 29.485C154.595 29.485 154.885 29.595 155.135 29.815C155.395 30.035 155.525 30.3 155.525 30.61C155.525 30.78 155.485 30.945 155.405 31.105L152.78 36.325C152.66 36.575 152.485 36.77 152.255 36.91C152.035 37.04 151.79 37.105 151.52 37.105C151.25 37.105 151 37.04 150.77 36.91C150.54 36.77 150.365 36.575 150.245 36.325L147.62 31.105C147.54 30.925 147.5 30.765 147.5 30.625C147.5 30.305 147.635 30.035 147.905 29.815C148.185 29.585 148.505 29.47 148.865 29.47C149.105 29.47 149.325 29.535 149.525 29.665C149.735 29.785 149.895 29.97 150.005 30.22L151.595 33.655L153.17 30.22ZM157.685 37.09C157.305 37.09 156.985 36.99 156.725 36.79C156.475 36.58 156.35 36.27 156.35 35.86V30.7C156.35 30.29 156.475 29.985 156.725 29.785C156.985 29.575 157.305 29.47 157.685 29.47C158.065 29.47 158.38 29.575 158.63 29.785C158.89 29.985 159.02 30.29 159.02 30.7V35.86C159.02 36.27 158.89 36.58 158.63 36.79C158.38 36.99 158.065 37.09 157.685 37.09ZM157.685 28.42C157.235 28.42 156.875 28.305 156.605 28.075C156.345 27.835 156.215 27.52 156.215 27.13C156.215 26.74 156.345 26.43 156.605 26.2C156.875 25.97 157.235 25.855 157.685 25.855C158.125 25.855 158.48 25.97 158.75 26.2C159.02 26.43 159.155 26.74 159.155 27.13C159.155 27.52 159.02 27.835 158.75 28.075C158.49 28.305 158.135 28.42 157.685 28.42ZM164.934 35.185C165.604 35.225 165.939 35.525 165.939 36.085C165.939 36.435 165.804 36.695 165.534 36.865C165.264 37.035 164.879 37.105 164.379 37.075L163.959 37.045C163.059 36.975 162.374 36.705 161.904 36.235C161.444 35.755 161.214 35.09 161.214 34.24V31.585H160.779C159.979 31.585 159.579 31.255 159.579 30.595C159.579 29.945 159.979 29.62 160.779 29.62H161.214V28.645C161.214 28.265 161.334 27.965 161.574 27.745C161.814 27.515 162.139 27.4 162.549 27.4C162.959 27.4 163.284 27.515 163.524 27.745C163.764 27.965 163.884 28.265 163.884 28.645V29.62H164.709C165.509 29.62 165.909 29.945 165.909 30.595C165.909 31.255 165.509 31.585 164.709 31.585H163.884V34.465C163.884 34.655 163.939 34.815 164.049 34.945C164.169 35.075 164.319 35.145 164.499 35.155L164.934 35.185ZM172.648 34.63C172.878 34.63 173.063 34.72 173.203 34.9C173.353 35.08 173.428 35.315 173.428 35.605C173.428 36.005 173.233 36.31 172.843 36.52C172.503 36.69 172.098 36.835 171.628 36.955C171.168 37.065 170.743 37.12 170.353 37.12C169.533 37.12 168.818 36.965 168.208 36.655C167.598 36.345 167.128 35.9 166.798 35.32C166.468 34.74 166.303 34.06 166.303 33.28C166.303 32.54 166.458 31.88 166.768 31.3C167.088 30.71 167.528 30.255 168.088 29.935C168.658 29.605 169.298 29.44 170.008 29.44C170.698 29.44 171.303 29.59 171.823 29.89C172.343 30.19 172.743 30.615 173.023 31.165C173.313 31.715 173.458 32.36 173.458 33.1C173.458 33.33 173.403 33.51 173.293 33.64C173.193 33.76 173.043 33.82 172.843 33.82H168.883C168.953 34.3 169.108 34.645 169.348 34.855C169.588 35.065 169.943 35.17 170.413 35.17C170.663 35.17 170.893 35.145 171.103 35.095C171.313 35.035 171.548 34.955 171.808 34.855C171.958 34.795 172.103 34.745 172.243 34.705C172.393 34.655 172.528 34.63 172.648 34.63ZM170.083 31.24C169.733 31.24 169.453 31.355 169.243 31.585C169.033 31.805 168.908 32.13 168.868 32.56H171.223C171.163 31.68 170.783 31.24 170.083 31.24ZM176.152 37.48C176.072 37.72 175.942 37.9 175.762 38.02C175.592 38.14 175.397 38.2 175.177 38.2C174.897 38.2 174.652 38.11 174.442 37.93C174.232 37.75 174.127 37.52 174.127 37.24C174.127 37.12 174.147 37.005 174.187 36.895L177.592 26.2C177.672 25.96 177.797 25.78 177.967 25.66C178.147 25.54 178.342 25.48 178.552 25.48C178.832 25.48 179.077 25.57 179.287 25.75C179.507 25.93 179.617 26.165 179.617 26.455C179.617 26.515 179.597 26.625 179.557 26.785L176.152 37.48ZM183.927 37.735C184.187 37.735 184.412 37.815 184.602 37.975C184.802 38.135 184.902 38.38 184.902 38.71C184.902 39.04 184.802 39.285 184.602 39.445C184.412 39.615 184.187 39.7 183.927 39.7H182.682C182.002 39.7 181.467 39.505 181.077 39.115C180.687 38.735 180.492 38.205 180.492 37.525V35.23C180.492 34.84 180.427 34.56 180.297 34.39C180.177 34.22 179.962 34.12 179.652 34.09C179.332 34.07 179.092 33.97 178.932 33.79C178.772 33.61 178.692 33.365 178.692 33.055C178.692 32.765 178.772 32.535 178.932 32.365C179.092 32.185 179.332 32.08 179.652 32.05C179.962 32.02 180.177 31.92 180.297 31.75C180.427 31.58 180.492 31.3 180.492 30.91V28.6C180.492 27.92 180.687 27.39 181.077 27.01C181.467 26.62 182.002 26.425 182.682 26.425H183.927C184.187 26.425 184.412 26.51 184.602 26.68C184.802 26.84 184.902 27.085 184.902 27.415C184.902 27.745 184.802 27.99 184.602 28.15C184.412 28.31 184.187 28.39 183.927 28.39H183.702C183.502 28.39 183.352 28.44 183.252 28.54C183.152 28.63 183.102 28.795 183.102 29.035V31.24C183.102 31.7 182.967 32.1 182.697 32.44C182.437 32.78 182.137 32.99 181.797 33.07C182.137 33.15 182.437 33.36 182.697 33.7C182.967 34.04 183.102 34.44 183.102 34.9V37.09C183.102 37.33 183.152 37.495 183.252 37.585C183.352 37.685 183.502 37.735 183.702 37.735H183.927ZM193.041 34.93C193.301 35.18 193.431 35.47 193.431 35.8C193.431 36.13 193.311 36.425 193.071 36.685C192.841 36.945 192.561 37.075 192.231 37.075C191.951 37.075 191.671 36.95 191.391 36.7L188.346 33.805V35.83C188.346 36.24 188.216 36.55 187.956 36.76C187.706 36.97 187.391 37.075 187.011 37.075C186.631 37.075 186.311 36.97 186.051 36.76C185.801 36.55 185.676 36.24 185.676 35.83V27.595C185.676 27.185 185.801 26.875 186.051 26.665C186.311 26.455 186.631 26.35 187.011 26.35C187.391 26.35 187.706 26.455 187.956 26.665C188.216 26.875 188.346 27.185 188.346 27.595V32.68L191.121 29.86C191.371 29.6 191.661 29.47 191.991 29.47C192.311 29.47 192.591 29.595 192.831 29.845C193.081 30.085 193.206 30.36 193.206 30.67C193.206 30.98 193.076 31.265 192.816 31.525L191.181 33.145L193.041 34.93ZM198.039 37.12C197.229 37.12 196.514 36.965 195.894 36.655C195.284 36.335 194.809 35.885 194.469 35.305C194.139 34.725 193.974 34.045 193.974 33.265C193.974 32.485 194.139 31.81 194.469 31.24C194.809 30.66 195.284 30.215 195.894 29.905C196.504 29.595 197.219 29.44 198.039 29.44C198.859 29.44 199.574 29.595 200.184 29.905C200.794 30.215 201.264 30.66 201.594 31.24C201.934 31.81 202.104 32.485 202.104 33.265C202.104 34.045 201.934 34.725 201.594 35.305C201.264 35.885 200.794 36.335 200.184 36.655C199.574 36.965 198.859 37.12 198.039 37.12ZM198.039 35.125C198.989 35.125 199.464 34.505 199.464 33.265C199.464 32.025 198.989 31.405 198.039 31.405C197.089 31.405 196.614 32.025 196.614 33.265C196.614 34.505 197.089 35.125 198.039 35.125ZM209.763 26.35C210.163 26.35 210.488 26.465 210.738 26.695C210.998 26.915 211.128 27.2 211.128 27.55V35.86C211.128 36.24 211.008 36.54 210.768 36.76C210.528 36.98 210.208 37.09 209.808 37.09C209.438 37.09 209.133 36.995 208.893 36.805C208.663 36.605 208.533 36.335 208.503 35.995C208.293 36.345 207.983 36.62 207.573 36.82C207.173 37.02 206.728 37.12 206.238 37.12C205.608 37.12 205.043 36.96 204.543 36.64C204.053 36.31 203.668 35.85 203.388 35.26C203.108 34.67 202.968 33.995 202.968 33.235C202.968 32.475 203.103 31.81 203.373 31.24C203.653 30.66 204.038 30.215 204.528 29.905C205.028 29.595 205.598 29.44 206.238 29.44C206.708 29.44 207.138 29.535 207.528 29.725C207.928 29.915 208.238 30.17 208.458 30.49V27.505C208.458 27.155 208.573 26.875 208.803 26.665C209.043 26.455 209.363 26.35 209.763 26.35ZM207.048 35.125C207.518 35.125 207.878 34.965 208.128 34.645C208.378 34.325 208.503 33.865 208.503 33.265C208.503 32.675 208.378 32.225 208.128 31.915C207.878 31.595 207.518 31.435 207.048 31.435C206.588 31.435 206.233 31.59 205.983 31.9C205.733 32.21 205.608 32.655 205.608 33.235C205.608 33.835 205.733 34.3 205.983 34.63C206.243 34.96 206.598 35.125 207.048 35.125ZM218.688 34.63C218.918 34.63 219.103 34.72 219.243 34.9C219.393 35.08 219.468 35.315 219.468 35.605C219.468 36.005 219.273 36.31 218.883 36.52C218.543 36.69 218.138 36.835 217.668 36.955C217.208 37.065 216.783 37.12 216.393 37.12C215.573 37.12 214.858 36.965 214.248 36.655C213.638 36.345 213.168 35.9 212.838 35.32C212.508 34.74 212.343 34.06 212.343 33.28C212.343 32.54 212.498 31.88 212.808 31.3C213.128 30.71 213.568 30.255 214.128 29.935C214.698 29.605 215.338 29.44 216.048 29.44C216.738 29.44 217.343 29.59 217.863 29.89C218.383 30.19 218.783 30.615 219.063 31.165C219.353 31.715 219.498 32.36 219.498 33.1C219.498 33.33 219.443 33.51 219.333 33.64C219.233 33.76 219.083 33.82 218.883 33.82H214.923C214.993 34.3 215.148 34.645 215.388 34.855C215.628 35.065 215.983 35.17 216.453 35.17C216.703 35.17 216.933 35.145 217.143 35.095C217.353 35.035 217.588 34.955 217.848 34.855C217.998 34.795 218.143 34.745 218.283 34.705C218.433 34.655 218.568 34.63 218.688 34.63ZM216.123 31.24C215.773 31.24 215.493 31.355 215.283 31.585C215.073 31.805 214.948 32.13 214.908 32.56H217.263C217.203 31.68 216.823 31.24 216.123 31.24ZM225.215 32.05C225.525 32.08 225.76 32.185 225.92 32.365C226.09 32.535 226.175 32.765 226.175 33.055C226.175 33.355 226.09 33.6 225.92 33.79C225.76 33.97 225.525 34.07 225.215 34.09C224.895 34.12 224.67 34.22 224.54 34.39C224.42 34.56 224.36 34.84 224.36 35.23V37.525C224.36 38.205 224.165 38.735 223.775 39.115C223.395 39.505 222.865 39.7 222.185 39.7H220.94C220.67 39.7 220.44 39.615 220.25 39.445C220.06 39.285 219.965 39.04 219.965 38.71C219.965 38.38 220.06 38.135 220.25 37.975C220.44 37.815 220.67 37.735 220.94 37.735H221.165C221.365 37.735 221.515 37.685 221.615 37.585C221.715 37.495 221.765 37.33 221.765 37.09V34.9C221.765 34.44 221.895 34.04 222.155 33.7C222.415 33.36 222.715 33.15 223.055 33.07C222.715 32.99 222.415 32.78 222.155 32.44C221.895 32.1 221.765 31.7 221.765 31.24V29.035C221.765 28.795 221.715 28.63 221.615 28.54C221.515 28.44 221.365 28.39 221.165 28.39H220.94C220.67 28.39 220.44 28.31 220.25 28.15C220.06 27.99 219.965 27.745 219.965 27.415C219.965 27.085 220.06 26.84 220.25 26.68C220.44 26.51 220.67 26.425 220.94 26.425H222.185C222.865 26.425 223.395 26.62 223.775 27.01C224.165 27.39 224.36 27.92 224.36 28.6V30.91C224.36 31.3 224.42 31.58 224.54 31.75C224.67 31.92 224.895 32.02 225.215 32.05Z" fill="#23690A"/>
<rect x="281" y="8" width="82" height="34" rx="8" fill="#23690A"/>
<path d="M310.323 30.12C309.313 30.12 308.433 29.905 307.683 29.475C306.933 29.035 306.358 28.41 305.958 27.6C305.558 26.78 305.358 25.815 305.358 24.705C305.358 23.605 305.558 22.65 305.958 21.84C306.358 21.02 306.933 20.395 307.683 19.965C308.433 19.525 309.313 19.305 310.323 19.305C310.983 19.305 311.608 19.41 312.198 19.62C312.788 19.82 313.303 20.115 313.743 20.505C313.933 20.655 314.028 20.855 314.028 21.105C314.028 21.285 313.978 21.44 313.878 21.57C313.778 21.69 313.658 21.75 313.518 21.75C313.348 21.75 313.183 21.685 313.023 21.555C312.543 21.195 312.103 20.945 311.703 20.805C311.313 20.655 310.868 20.58 310.368 20.58C309.268 20.58 308.423 20.935 307.833 21.645C307.243 22.355 306.948 23.375 306.948 24.705C306.948 26.045 307.243 27.07 307.833 27.78C308.423 28.49 309.268 28.845 310.368 28.845C310.848 28.845 311.283 28.77 311.673 28.62C312.073 28.47 312.523 28.22 313.023 27.87C313.223 27.74 313.388 27.675 313.518 27.675C313.658 27.675 313.778 27.74 313.878 27.87C313.978 27.99 314.028 28.14 314.028 28.32C314.028 28.57 313.933 28.77 313.743 28.92C313.303 29.31 312.788 29.61 312.198 29.82C311.608 30.02 310.983 30.12 310.323 30.12ZM318.723 30.105C318.003 30.105 317.368 29.95 316.818 29.64C316.278 29.33 315.858 28.89 315.558 28.32C315.268 27.74 315.123 27.07 315.123 26.31C315.123 25.54 315.268 24.87 315.558 24.3C315.858 23.72 316.278 23.275 316.818 22.965C317.368 22.655 318.003 22.5 318.723 22.5C319.443 22.5 320.073 22.655 320.613 22.965C321.163 23.275 321.583 23.72 321.873 24.3C322.173 24.87 322.323 25.54 322.323 26.31C322.323 27.07 322.173 27.74 321.873 28.32C321.583 28.89 321.163 29.33 320.613 29.64C320.073 29.95 319.443 30.105 318.723 30.105ZM318.723 28.905C319.393 28.905 319.903 28.685 320.253 28.245C320.613 27.805 320.793 27.16 320.793 26.31C320.793 25.47 320.613 24.83 320.253 24.39C319.893 23.94 319.383 23.715 318.723 23.715C318.063 23.715 317.553 23.94 317.193 24.39C316.833 24.83 316.653 25.47 316.653 26.31C316.653 27.16 316.828 27.805 317.178 28.245C317.538 28.685 318.053 28.905 318.723 28.905ZM327.939 22.5C328.569 22.5 329.129 22.66 329.619 22.98C330.119 23.3 330.504 23.75 330.774 24.33C331.054 24.91 331.194 25.58 331.194 26.34C331.194 27.09 331.059 27.75 330.789 28.32C330.519 28.89 330.134 29.33 329.634 29.64C329.144 29.95 328.579 30.105 327.939 30.105C327.389 30.105 326.904 29.99 326.484 29.76C326.064 29.52 325.744 29.18 325.524 28.74V32.085C325.524 32.295 325.454 32.46 325.314 32.58C325.184 32.71 325.009 32.775 324.789 32.775C324.559 32.775 324.369 32.71 324.219 32.58C324.079 32.45 324.009 32.275 324.009 32.055V23.265C324.009 23.045 324.079 22.87 324.219 22.74C324.359 22.6 324.544 22.53 324.774 22.53C324.994 22.53 325.174 22.6 325.314 22.74C325.454 22.87 325.524 23.045 325.524 23.265V23.88C325.744 23.44 326.064 23.1 326.484 22.86C326.904 22.62 327.389 22.5 327.939 22.5ZM327.579 28.905C328.239 28.905 328.749 28.685 329.109 28.245C329.469 27.795 329.649 27.16 329.649 26.34C329.649 25.51 329.464 24.865 329.094 24.405C328.734 23.945 328.229 23.715 327.579 23.715C326.919 23.715 326.409 23.94 326.049 24.39C325.699 24.84 325.524 25.48 325.524 26.31C325.524 27.14 325.699 27.78 326.049 28.23C326.409 28.68 326.919 28.905 327.579 28.905ZM337.974 22.98C338.034 22.83 338.119 22.72 338.229 22.65C338.349 22.58 338.474 22.545 338.604 22.545C338.794 22.545 338.959 22.61 339.099 22.74C339.249 22.87 339.324 23.025 339.324 23.205C339.324 23.305 339.304 23.4 339.264 23.49L335.094 32.34C335.034 32.48 334.944 32.585 334.824 32.655C334.714 32.735 334.594 32.775 334.464 32.775C334.284 32.775 334.119 32.715 333.969 32.595C333.829 32.475 333.759 32.325 333.759 32.145C333.759 32.065 333.784 31.965 333.834 31.845L334.869 29.64L331.974 23.49C331.934 23.41 331.914 23.32 331.914 23.22C331.914 23.03 331.994 22.87 332.154 22.74C332.314 22.61 332.494 22.545 332.694 22.545C332.994 22.545 333.209 22.685 333.339 22.965L335.664 28.125L337.974 22.98Z" fill="white"/>
</svg>
